<?xml version="1.0" encoding="UTF-8" standalone="no"?>
<!-- Generator: Adobe Illustrator 22.0.1, SVG Export Plug-In . SVG Version: 6.00 Build 0)  -->

<svg
   xmlns:dc="http://purl.org/dc/elements/1.1/"
   xmlns:cc="http://creativecommons.org/ns#"
   xmlns:rdf="http://www.w3.org/1999/02/22-rdf-syntax-ns#"
   xmlns:svg="http://www.w3.org/2000/svg"
   xmlns="http://www.w3.org/2000/svg"
   xmlns:sodipodi="http://sodipodi.sourceforge.net/DTD/sodipodi-0.dtd"
   xmlns:inkscape="http://www.inkscape.org/namespaces/inkscape"
   version="1.1"
   id="Layer_1"
   x="0px"
   y="0px"
   viewBox="0 0 1482.2 790.79999"
   xml:space="preserve"
   inkscape:version="0.91 r13725"
   sodipodi:docname="growth.svg"
   width="1482.2"
   height="790.79999"><metadata
     id="metadata1289"><rdf:RDF><cc:Work
         rdf:about=""><dc:format>image/svg+xml</dc:format><dc:type
           rdf:resource="http://purl.org/dc/dcmitype/StillImage" /><dc:title></dc:title></cc:Work></rdf:RDF></metadata><defs
     id="defs1287" /><sodipodi:namedview
     pagecolor="#ffffff"
     bordercolor="#666666"
     borderopacity="1"
     objecttolerance="10"
     gridtolerance="10"
     guidetolerance="10"
     inkscape:pageopacity="0"
     inkscape:pageshadow="2"
     inkscape:window-width="3200"
     inkscape:window-height="1751"
     id="namedview1285"
     showgrid="false"
     fit-margin-top="0"
     fit-margin-left="0"
     fit-margin-right="0"
     fit-margin-bottom="0"
     inkscape:zoom="0.21851852"
     inkscape:cx="741.1"
     inkscape:cy="395.4"
     inkscape:window-x="0"
     inkscape:window-y="24"
     inkscape:window-maximized="1"
     inkscape:current-layer="Layer_1" /><g
     id="g5"
     transform="translate(-218.9,-144.6)"><g
       id="g7"><g
         id="g9"><path
           d="m 611.8,489.2 -111.5,0 c -2.8,0 -5,-2.2 -5,-5 l 0,-111.5 c 0,-2.8 2.2,-5 5,-5 l 111.5,0 c 2.8,0 5,2.2 5,5 l 0,111.5 c 0,2.8 -2.2,5 -5,5 z m -106.5,-10 101.5,0 0,-101.5 -101.5,0 0,101.5 z"
           style="fill:#e3c049"
           id="path11"
           inkscape:connector-curvature="0" /></g><g
         id="g13"><path
           d="m 723.4,489.2 -111.6,0 c -2.8,0 -5,-2.2 -5,-5 l 0,-111.5 c 0,-2.8 2.2,-5 5,-5 l 111.5,0 c 2.8,0 5,2.2 5,5 l 0,111.5 c 0.1,2.8 -2.2,5 -4.9,5 z m -106.6,-10 101.5,0 0,-101.5 -101.5,0 0,101.5 z"
           style="fill:#e3c049"
           id="path15"
           inkscape:connector-curvature="0" /></g><g
         id="g17"><path
           d="m 834.9,489.2 -111.5,0 c -2.8,0 -5,-2.2 -5,-5 l 0,-111.5 c 0,-2.8 2.2,-5 5,-5 l 111.5,0 c 2.8,0 5,2.2 5,5 l 0,111.5 c 0,2.8 -2.2,5 -5,5 z m -106.5,-10 101.5,0 0,-101.5 -101.5,0 0,101.5 z"
           style="fill:#e3c049"
           id="path19"
           inkscape:connector-curvature="0" /></g><g
         id="g21"><path
           d="m 946.5,489.2 -111.6,0 c -2.8,0 -5,-2.2 -5,-5 l 0,-111.5 c 0,-2.8 2.2,-5 5,-5 l 111.5,0 c 2.8,0 5,2.2 5,5 l 0,111.5 c 0.1,2.8 -2.2,5 -4.9,5 z m -106.6,-10 101.5,0 0,-101.5 -101.5,0 0,101.5 z"
           style="fill:#e3c049"
           id="path23"
           inkscape:connector-curvature="0" /></g><g
         id="g25"><path
           d="m 1058,489.2 -111.5,0 c -2.8,0 -5,-2.2 -5,-5 l 0,-111.5 c 0,-2.8 2.2,-5 5,-5 l 111.5,0 c 2.8,0 5,2.2 5,5 l 0,111.5 c 0,2.8 -2.2,5 -5,5 z m -106.5,-10 101.5,0 0,-101.5 -101.5,0 0,101.5 z"
           style="fill:#e3c049"
           id="path27"
           inkscape:connector-curvature="0" /></g><g
         id="g29"><path
           d="m 1169.6,489.2 -111.6,0 c -2.8,0 -5,-2.2 -5,-5 l 0,-111.5 c 0,-2.8 2.2,-5 5,-5 l 111.5,0 c 2.8,0 5,2.2 5,5 l 0,111.5 c 0.1,2.8 -2.2,5 -4.9,5 z m -106.6,-10 101.5,0 0,-101.5 -101.5,0 0,101.5 z"
           style="fill:#e3c049"
           id="path31"
           inkscape:connector-curvature="0" /></g><g
         id="g33"><path
           d="m 611.8,600.8 -111.5,0 c -2.8,0 -5,-2.2 -5,-5 l 0,-111.6 c 0,-2.8 2.2,-5 5,-5 l 111.5,0 c 2.8,0 5,2.2 5,5 l 0,111.5 c 0,2.8 -2.2,5.1 -5,5.1 z m -106.5,-10 101.5,0 0,-101.6 -101.5,0 0,101.6 z"
           style="fill:#e3c049"
           id="path35"
           inkscape:connector-curvature="0" /></g><g
         id="g37"><path
           d="m 723.4,600.8 -111.6,0 c -2.8,0 -5,-2.2 -5,-5 l 0,-111.6 c 0,-2.8 2.2,-5 5,-5 l 111.5,0 c 2.8,0 5,2.2 5,5 l 0,111.5 c 0.1,2.8 -2.2,5.1 -4.9,5.1 z m -106.6,-10 101.5,0 0,-101.6 -101.5,0 0,101.6 z"
           style="fill:#e3c049"
           id="path39"
           inkscape:connector-curvature="0" /></g><g
         id="g41"><path
           d="m 834.9,600.8 -111.5,0 c -2.8,0 -5,-2.2 -5,-5 l 0,-111.6 c 0,-2.8 2.2,-5 5,-5 l 111.5,0 c 2.8,0 5,2.2 5,5 l 0,111.5 c 0,2.8 -2.2,5.1 -5,5.1 z m -106.5,-10 101.5,0 0,-101.6 -101.5,0 0,101.6 z"
           style="fill:#e3c049"
           id="path43"
           inkscape:connector-curvature="0" /></g><g
         id="g45"><path
           d="m 946.5,600.8 -111.6,0 c -2.8,0 -5,-2.2 -5,-5 l 0,-111.6 c 0,-2.8 2.2,-5 5,-5 l 111.5,0 c 2.8,0 5,2.2 5,5 l 0,111.5 c 0.1,2.8 -2.2,5.1 -4.9,5.1 z m -106.6,-10 101.5,0 0,-101.6 -101.5,0 0,101.6 z"
           style="fill:#e3c049"
           id="path47"
           inkscape:connector-curvature="0" /></g><g
         id="g49"><path
           d="m 1058,600.8 -111.5,0 c -2.8,0 -5,-2.2 -5,-5 l 0,-111.6 c 0,-2.8 2.2,-5 5,-5 l 111.5,0 c 2.8,0 5,2.2 5,5 l 0,111.5 c 0,2.8 -2.2,5.1 -5,5.1 z m -106.5,-10 101.5,0 0,-101.6 -101.5,0 0,101.6 z"
           style="fill:#e3c049"
           id="path51"
           inkscape:connector-curvature="0" /></g><g
         id="g53"><path
           d="m 1169.6,600.8 -111.6,0 c -2.8,0 -5,-2.2 -5,-5 l 0,-111.6 c 0,-2.8 2.2,-5 5,-5 l 111.5,0 c 2.8,0 5,2.2 5,5 l 0,111.5 c 0.1,2.8 -2.2,5.1 -4.9,5.1 z m -106.6,-10 101.5,0 0,-101.6 -101.5,0 0,101.6 z"
           style="fill:#e3c049"
           id="path55"
           inkscape:connector-curvature="0" /></g><g
         id="g57"><path
           d="m 611.8,712.3 -111.5,0 c -2.8,0 -5,-2.2 -5,-5 l 0,-111.5 c 0,-2.8 2.2,-5 5,-5 l 111.5,0 c 2.8,0 5,2.2 5,5 l 0,111.5 c 0,2.8 -2.2,5 -5,5 z m -106.5,-10 101.5,0 0,-101.5 -101.5,0 0,101.5 z"
           style="fill:#e3c049"
           id="path59"
           inkscape:connector-curvature="0" /></g><g
         id="g61"><path
           d="m 723.4,712.3 -111.6,0 c -2.8,0 -5,-2.2 -5,-5 l 0,-111.5 c 0,-2.8 2.2,-5 5,-5 l 111.5,0 c 2.8,0 5,2.2 5,5 l 0,111.5 c 0.1,2.8 -2.2,5 -4.9,5 z m -106.6,-10 101.5,0 0,-101.5 -101.5,0 0,101.5 z"
           style="fill:#e3c049"
           id="path63"
           inkscape:connector-curvature="0" /></g><g
         id="g65"><path
           d="m 834.9,712.3 -111.5,0 c -2.8,0 -5,-2.2 -5,-5 l 0,-111.5 c 0,-2.8 2.2,-5 5,-5 l 111.5,0 c 2.8,0 5,2.2 5,5 l 0,111.5 c 0,2.8 -2.2,5 -5,5 z m -106.5,-10 101.5,0 0,-101.5 -101.5,0 0,101.5 z"
           style="fill:#e3c049"
           id="path67"
           inkscape:connector-curvature="0" /></g><g
         id="g69"><path
           d="m 946.5,712.3 -111.6,0 c -2.8,0 -5,-2.2 -5,-5 l 0,-111.5 c 0,-2.8 2.2,-5 5,-5 l 111.5,0 c 2.8,0 5,2.2 5,5 l 0,111.5 c 0.1,2.8 -2.2,5 -4.9,5 z m -106.6,-10 101.5,0 0,-101.5 -101.5,0 0,101.5 z"
           style="fill:#e3c049"
           id="path71"
           inkscape:connector-curvature="0" /></g><g
         id="g73"><path
           d="m 1058,712.3 -111.5,0 c -2.8,0 -5,-2.2 -5,-5 l 0,-111.5 c 0,-2.8 2.2,-5 5,-5 l 111.5,0 c 2.8,0 5,2.2 5,5 l 0,111.5 c 0,2.8 -2.2,5 -5,5 z m -106.5,-10 101.5,0 0,-101.5 -101.5,0 0,101.5 z"
           style="fill:#e3c049"
           id="path75"
           inkscape:connector-curvature="0" /></g><g
         id="g77"><path
           d="m 1169.6,712.3 -111.6,0 c -2.8,0 -5,-2.2 -5,-5 l 0,-111.5 c 0,-2.8 2.2,-5 5,-5 l 111.5,0 c 2.8,0 5,2.2 5,5 l 0,111.5 c 0.1,2.8 -2.2,5 -4.9,5 z m -106.6,-10 101.5,0 0,-101.5 -101.5,0 0,101.5 z"
           style="fill:#e3c049"
           id="path79"
           inkscape:connector-curvature="0" /></g><g
         id="g81"><path
           d="m 611.8,823.9 -111.5,0 c -2.8,0 -5,-2.2 -5,-5 l 0,-111.6 c 0,-2.8 2.2,-5 5,-5 l 111.5,0 c 2.8,0 5,2.2 5,5 l 0,111.5 c 0,2.8 -2.2,5.1 -5,5.1 z m -106.5,-10 101.5,0 0,-101.6 -101.5,0 0,101.6 z"
           style="fill:#e3c049"
           id="path83"
           inkscape:connector-curvature="0" /></g><g
         id="g85"><path
           d="m 723.4,823.9 -111.6,0 c -2.8,0 -5,-2.2 -5,-5 l 0,-111.6 c 0,-2.8 2.2,-5 5,-5 l 111.5,0 c 2.8,0 5,2.2 5,5 l 0,111.5 c 0.1,2.8 -2.2,5.1 -4.9,5.1 z m -106.6,-10 101.5,0 0,-101.6 -101.5,0 0,101.6 z"
           style="fill:#e3c049"
           id="path87"
           inkscape:connector-curvature="0" /></g><g
         id="g89"><path
           d="m 834.9,823.9 -111.5,0 c -2.8,0 -5,-2.2 -5,-5 l 0,-111.6 c 0,-2.8 2.2,-5 5,-5 l 111.5,0 c 2.8,0 5,2.2 5,5 l 0,111.5 c 0,2.8 -2.2,5.1 -5,5.1 z m -106.5,-10 101.5,0 0,-101.6 -101.5,0 0,101.6 z"
           style="fill:#e3c049"
           id="path91"
           inkscape:connector-curvature="0" /></g><g
         id="g93"><path
           d="m 946.5,823.9 -111.6,0 c -2.8,0 -5,-2.2 -5,-5 l 0,-111.6 c 0,-2.8 2.2,-5 5,-5 l 111.5,0 c 2.8,0 5,2.2 5,5 l 0,111.5 c 0.1,2.8 -2.2,5.1 -4.9,5.1 z m -106.6,-10 101.5,0 0,-101.6 -101.5,0 0,101.6 z"
           style="fill:#e3c049"
           id="path95"
           inkscape:connector-curvature="0" /></g><g
         id="g97"><path
           d="m 1058,823.9 -111.5,0 c -2.8,0 -5,-2.2 -5,-5 l 0,-111.6 c 0,-2.8 2.2,-5 5,-5 l 111.5,0 c 2.8,0 5,2.2 5,5 l 0,111.5 c 0,2.8 -2.2,5.1 -5,5.1 z m -106.5,-10 101.5,0 0,-101.6 -101.5,0 0,101.6 z"
           style="fill:#e3c049"
           id="path99"
           inkscape:connector-curvature="0" /></g><g
         id="g101"><path
           d="m 1169.6,823.9 -111.6,0 c -2.8,0 -5,-2.2 -5,-5 l 0,-111.6 c 0,-2.8 2.2,-5 5,-5 l 111.5,0 c 2.8,0 5,2.2 5,5 l 0,111.5 c 0.1,2.8 -2.2,5.1 -4.9,5.1 z m -106.6,-10 101.5,0 0,-101.6 -101.5,0 0,101.6 z"
           style="fill:#e3c049"
           id="path103"
           inkscape:connector-curvature="0" /></g><g
         id="g105"><path
           d="m 611.8,935.4 -111.5,0 c -2.8,0 -5,-2.2 -5,-5 l 0,-111.5 c 0,-2.8 2.2,-5 5,-5 l 111.5,0 c 2.8,0 5,2.2 5,5 l 0,111.5 c 0,2.8 -2.2,5 -5,5 z m -106.5,-10 101.5,0 0,-101.5 -101.5,0 0,101.5 z"
           style="fill:#e3c049"
           id="path107"
           inkscape:connector-curvature="0" /></g><g
         id="g109"><path
           d="m 500.3,489.2 -111.6,0 c -2.8,0 -5,-2.2 -5,-5 l 0,-111.5 c 0,-2.8 2.2,-5 5,-5 l 111.5,0 c 2.8,0 5,2.2 5,5 l 0,111.5 c 0.1,2.8 -2.2,5 -4.9,5 z m -106.6,-10 101.5,0 0,-101.5 -101.5,0 0,101.5 z"
           style="fill:#e3c049"
           id="path111"
           inkscape:connector-curvature="0" /></g><g
         id="g113"><path
           d="m 500.3,600.8 -111.6,0 c -2.8,0 -5,-2.2 -5,-5 l 0,-111.6 c 0,-2.8 2.2,-5 5,-5 l 111.5,0 c 2.8,0 5,2.2 5,5 l 0,111.5 c 0.1,2.8 -2.2,5.1 -4.9,5.1 z m -106.6,-10 101.5,0 0,-101.6 -101.5,0 0,101.6 z"
           style="fill:#e3c049"
           id="path115"
           inkscape:connector-curvature="0" /></g><g
         id="g117"><path
           d="m 500.3,712.3 -111.6,0 c -2.8,0 -5,-2.2 -5,-5 l 0,-111.5 c 0,-2.8 2.2,-5 5,-5 l 111.5,0 c 2.8,0 5,2.2 5,5 l 0,111.5 c 0.1,2.8 -2.2,5 -4.9,5 z m -106.6,-10 101.5,0 0,-101.5 -101.5,0 0,101.5 z"
           style="fill:#e3c049"
           id="path119"
           inkscape:connector-curvature="0" /></g><g
         id="g121"><path
           d="m 500.3,823.9 -111.6,0 c -2.8,0 -5,-2.2 -5,-5 l 0,-111.6 c 0,-2.8 2.2,-5 5,-5 l 111.5,0 c 2.8,0 5,2.2 5,5 l 0,111.5 c 0.1,2.8 -2.2,5.1 -4.9,5.1 z m -106.6,-10 101.5,0 0,-101.6 -101.5,0 0,101.6 z"
           style="fill:#e3c049"
           id="path123"
           inkscape:connector-curvature="0" /></g><g
         id="g125"><path
           d="m 500.3,935.4 -111.6,0 c -2.8,0 -5,-2.2 -5,-5 l 0,-111.5 c 0,-2.8 2.2,-5 5,-5 l 111.5,0 c 2.8,0 5,2.2 5,5 l 0,111.5 c 0.1,2.8 -2.2,5 -4.9,5 z m -106.6,-10 101.5,0 0,-101.5 -101.5,0 0,101.5 z"
           style="fill:#e3c049"
           id="path127"
           inkscape:connector-curvature="0" /></g><g
         id="g129"><path
           d="m 723.4,935.4 -111.6,0 c -2.8,0 -5,-2.2 -5,-5 l 0,-111.5 c 0,-2.8 2.2,-5 5,-5 l 111.5,0 c 2.8,0 5,2.2 5,5 l 0,111.5 c 0.1,2.8 -2.2,5 -4.9,5 z m -106.6,-10 101.5,0 0,-101.5 -101.5,0 0,101.5 z"
           style="fill:#e3c049"
           id="path131"
           inkscape:connector-curvature="0" /></g><g
         id="g133"><path
           d="m 834.9,935.4 -111.5,0 c -2.8,0 -5,-2.2 -5,-5 l 0,-111.5 c 0,-2.8 2.2,-5 5,-5 l 111.5,0 c 2.8,0 5,2.2 5,5 l 0,111.5 c 0,2.8 -2.2,5 -5,5 z m -106.5,-10 101.5,0 0,-101.5 -101.5,0 0,101.5 z"
           style="fill:#e3c049"
           id="path135"
           inkscape:connector-curvature="0" /></g><g
         id="g137"><path
           d="m 946.5,935.4 -111.6,0 c -2.8,0 -5,-2.2 -5,-5 l 0,-111.5 c 0,-2.8 2.2,-5 5,-5 l 111.5,0 c 2.8,0 5,2.2 5,5 l 0,111.5 c 0.1,2.8 -2.2,5 -4.9,5 z m -106.6,-10 101.5,0 0,-101.5 -101.5,0 0,101.5 z"
           style="fill:#e3c049"
           id="path139"
           inkscape:connector-curvature="0" /></g><g
         id="g141"><path
           d="m 1058,935.4 -111.5,0 c -2.8,0 -5,-2.2 -5,-5 l 0,-111.5 c 0,-2.8 2.2,-5 5,-5 l 111.5,0 c 2.8,0 5,2.2 5,5 l 0,111.5 c 0,2.8 -2.2,5 -5,5 z m -106.5,-10 101.5,0 0,-101.5 -101.5,0 0,101.5 z"
           style="fill:#e3c049"
           id="path143"
           inkscape:connector-curvature="0" /></g><g
         id="g145"><path
           d="m 1169.6,935.4 -111.6,0 c -2.8,0 -5,-2.2 -5,-5 l 0,-111.5 c 0,-2.8 2.2,-5 5,-5 l 111.5,0 c 2.8,0 5,2.2 5,5 l 0,111.5 c 0.1,2.8 -2.2,5 -4.9,5 z m -106.6,-10 101.5,0 0,-101.5 -101.5,0 0,101.5 z"
           style="fill:#e3c049"
           id="path147"
           inkscape:connector-curvature="0" /></g><g
         id="g149"><path
           d="m 1281.1,489.2 -111.5,0 c -2.8,0 -5,-2.2 -5,-5 l 0,-111.5 c 0,-2.8 2.2,-5 5,-5 l 111.5,0 c 2.8,0 5,2.2 5,5 l 0,111.5 c 0,2.8 -2.2,5 -5,5 z m -106.5,-10 101.5,0 0,-101.5 -101.5,0 0,101.5 z"
           style="fill:#e3c049"
           id="path151"
           inkscape:connector-curvature="0" /></g><g
         id="g153"><path
           d="m 1281.1,600.8 -111.5,0 c -2.8,0 -5,-2.2 -5,-5 l 0,-111.6 c 0,-2.8 2.2,-5 5,-5 l 111.5,0 c 2.8,0 5,2.2 5,5 l 0,111.5 c 0,2.8 -2.2,5.1 -5,5.1 z m -106.5,-10 101.5,0 0,-101.6 -101.5,0 0,101.6 z"
           style="fill:#e3c049"
           id="path155"
           inkscape:connector-curvature="0" /></g><g
         id="g157"><path
           d="m 1281.1,712.3 -111.5,0 c -2.8,0 -5,-2.2 -5,-5 l 0,-111.5 c 0,-2.8 2.2,-5 5,-5 l 111.5,0 c 2.8,0 5,2.2 5,5 l 0,111.5 c 0,2.8 -2.2,5 -5,5 z m -106.5,-10 101.5,0 0,-101.5 -101.5,0 0,101.5 z"
           style="fill:#e3c049"
           id="path159"
           inkscape:connector-curvature="0" /></g><g
         id="g161"><path
           d="m 1281.1,823.9 -111.5,0 c -2.8,0 -5,-2.2 -5,-5 l 0,-111.6 c 0,-2.8 2.2,-5 5,-5 l 111.5,0 c 2.8,0 5,2.2 5,5 l 0,111.5 c 0,2.8 -2.2,5.1 -5,5.1 z m -106.5,-10 101.5,0 0,-101.6 -101.5,0 0,101.6 z"
           style="fill:#e3c049"
           id="path163"
           inkscape:connector-curvature="0" /></g><g
         id="g165"><path
           d="m 1281.1,935.4 -111.5,0 c -2.8,0 -5,-2.2 -5,-5 l 0,-111.5 c 0,-2.8 2.2,-5 5,-5 l 111.5,0 c 2.8,0 5,2.2 5,5 l 0,111.5 c 0,2.8 -2.2,5 -5,5 z m -106.5,-10 101.5,0 0,-101.5 -101.5,0 0,101.5 z"
           style="fill:#e3c049"
           id="path167"
           inkscape:connector-curvature="0" /></g><g
         id="g169"><path
           d="m 1392.6,489.2 -111.5,0 c -2.8,0 -5,-2.2 -5,-5 l 0,-111.5 c 0,-2.8 2.2,-5 5,-5 l 111.5,0 c 2.8,0 5,2.2 5,5 l 0,111.5 c 0,2.8 -2.2,5 -5,5 z m -106.5,-10 101.5,0 0,-101.5 -101.5,0 0,101.5 z"
           style="fill:#e3c049"
           id="path171"
           inkscape:connector-curvature="0" /></g><g
         id="g173"><path
           d="m 1392.6,600.8 -111.5,0 c -2.8,0 -5,-2.2 -5,-5 l 0,-111.6 c 0,-2.8 2.2,-5 5,-5 l 111.5,0 c 2.8,0 5,2.2 5,5 l 0,111.5 c 0,2.8 -2.2,5.1 -5,5.1 z m -106.5,-10 101.5,0 0,-101.6 -101.5,0 0,101.6 z"
           style="fill:#e3c049"
           id="path175"
           inkscape:connector-curvature="0" /></g><g
         id="g177"><path
           d="m 1392.6,712.3 -111.5,0 c -2.8,0 -5,-2.2 -5,-5 l 0,-111.5 c 0,-2.8 2.2,-5 5,-5 l 111.5,0 c 2.8,0 5,2.2 5,5 l 0,111.5 c 0,2.8 -2.2,5 -5,5 z m -106.5,-10 101.5,0 0,-101.5 -101.5,0 0,101.5 z"
           style="fill:#e3c049"
           id="path179"
           inkscape:connector-curvature="0" /></g><g
         id="g181"><path
           d="m 1392.6,823.9 -111.5,0 c -2.8,0 -5,-2.2 -5,-5 l 0,-111.6 c 0,-2.8 2.2,-5 5,-5 l 111.5,0 c 2.8,0 5,2.2 5,5 l 0,111.5 c 0,2.8 -2.2,5.1 -5,5.1 z m -106.5,-10 101.5,0 0,-101.6 -101.5,0 0,101.6 z"
           style="fill:#e3c049"
           id="path183"
           inkscape:connector-curvature="0" /></g><g
         id="g185"><path
           d="m 1392.6,935.4 -111.5,0 c -2.8,0 -5,-2.2 -5,-5 l 0,-111.5 c 0,-2.8 2.2,-5 5,-5 l 111.5,0 c 2.8,0 5,2.2 5,5 l 0,111.5 c 0,2.8 -2.2,5 -5,5 z m -106.5,-10 101.5,0 0,-101.5 -101.5,0 0,101.5 z"
           style="fill:#e3c049"
           id="path187"
           inkscape:connector-curvature="0" /></g><g
         id="g189"><path
           d="m 1504.2,489.2 -111.5,0 c -2.8,0 -5,-2.2 -5,-5 l 0,-111.5 c 0,-2.8 2.2,-5 5,-5 l 111.5,0 c 2.8,0 5,2.2 5,5 l 0,111.5 c 0,2.8 -2.2,5 -5,5 z m -106.6,-10 101.5,0 0,-101.5 -101.5,0 0,101.5 z"
           style="fill:#e3c049"
           id="path191"
           inkscape:connector-curvature="0" /></g><g
         id="g193"><path
           d="m 611.8,377.7 -111.5,0 c -2.8,0 -5,-2.2 -5,-5 l 0,-111.6 c 0,-2.8 2.2,-5 5,-5 l 111.5,0 c 2.8,0 5,2.2 5,5 l 0,111.5 c 0,2.8 -2.2,5.1 -5,5.1 z m -106.5,-10 101.5,0 0,-101.6 -101.5,0 0,101.6 z"
           style="fill:#e3c049"
           id="path195"
           inkscape:connector-curvature="0" /></g><g
         id="g197"><path
           d="m 723.4,377.7 -111.6,0 c -2.8,0 -5,-2.2 -5,-5 l 0,-111.6 c 0,-2.8 2.2,-5 5,-5 l 111.5,0 c 2.8,0 5,2.2 5,5 l 0,111.5 c 0.1,2.8 -2.2,5.1 -4.9,5.1 z m -106.6,-10 101.5,0 0,-101.6 -101.5,0 0,101.6 z"
           style="fill:#e3c049"
           id="path199"
           inkscape:connector-curvature="0" /></g><g
         id="g201"><path
           d="m 834.9,377.7 -111.5,0 c -2.8,0 -5,-2.2 -5,-5 l 0,-111.6 c 0,-2.8 2.2,-5 5,-5 l 111.5,0 c 2.8,0 5,2.2 5,5 l 0,111.5 c 0,2.8 -2.2,5.1 -5,5.1 z m -106.5,-10 101.5,0 0,-101.6 -101.5,0 0,101.6 z"
           style="fill:#e3c049"
           id="path203"
           inkscape:connector-curvature="0" /></g><g
         id="g205"><path
           d="m 946.5,377.7 -111.6,0 c -2.8,0 -5,-2.2 -5,-5 l 0,-111.6 c 0,-2.8 2.2,-5 5,-5 l 111.5,0 c 2.8,0 5,2.2 5,5 l 0,111.5 c 0.1,2.8 -2.2,5.1 -4.9,5.1 z m -106.6,-10 101.5,0 0,-101.6 -101.5,0 0,101.6 z"
           style="fill:#e3c049"
           id="path207"
           inkscape:connector-curvature="0" /></g><g
         id="g209"><path
           d="m 1058,377.7 -111.5,0 c -2.8,0 -5,-2.2 -5,-5 l 0,-111.6 c 0,-2.8 2.2,-5 5,-5 l 111.5,0 c 2.8,0 5,2.2 5,5 l 0,111.5 c 0,2.8 -2.2,5.1 -5,5.1 z m -106.5,-10 101.5,0 0,-101.6 -101.5,0 0,101.6 z"
           style="fill:#e3c049"
           id="path211"
           inkscape:connector-curvature="0" /></g><g
         id="g213"><path
           d="m 1169.6,377.7 -111.6,0 c -2.8,0 -5,-2.2 -5,-5 l 0,-111.6 c 0,-2.8 2.2,-5 5,-5 l 111.5,0 c 2.8,0 5,2.2 5,5 l 0,111.5 c 0.1,2.8 -2.2,5.1 -4.9,5.1 z m -106.6,-10 101.5,0 0,-101.6 -101.5,0 0,101.6 z"
           style="fill:#e3c049"
           id="path215"
           inkscape:connector-curvature="0" /></g><g
         id="g217"><path
           d="m 500.3,377.7 -111.6,0 c -2.8,0 -5,-2.2 -5,-5 l 0,-111.6 c 0,-2.8 2.2,-5 5,-5 l 111.5,0 c 2.8,0 5,2.2 5,5 l 0,111.5 c 0.1,2.8 -2.2,5.1 -4.9,5.1 z m -106.6,-10 101.5,0 0,-101.6 -101.5,0 0,101.6 z"
           style="fill:#e3c049"
           id="path219"
           inkscape:connector-curvature="0" /></g><g
         id="g221"><path
           d="m 1281.1,377.7 -111.5,0 c -2.8,0 -5,-2.2 -5,-5 l 0,-111.6 c 0,-2.8 2.2,-5 5,-5 l 111.5,0 c 2.8,0 5,2.2 5,5 l 0,111.5 c 0,2.8 -2.2,5.1 -5,5.1 z m -106.5,-10 101.5,0 0,-101.6 -101.5,0 0,101.6 z"
           style="fill:#e3c049"
           id="path223"
           inkscape:connector-curvature="0" /></g><g
         id="g225"><path
           d="m 1392.6,377.7 -111.5,0 c -2.8,0 -5,-2.2 -5,-5 l 0,-111.6 c 0,-2.8 2.2,-5 5,-5 l 111.5,0 c 2.8,0 5,2.2 5,5 l 0,111.5 c 0,2.8 -2.2,5.1 -5,5.1 z m -106.5,-10 101.5,0 0,-101.6 -101.5,0 0,101.6 z"
           style="fill:#e3c049"
           id="path227"
           inkscape:connector-curvature="0" /></g><g
         id="g229"><path
           d="m 1504.2,377.7 -111.5,0 c -2.8,0 -5,-2.2 -5,-5 l 0,-111.6 c 0,-2.8 2.2,-5 5,-5 l 111.5,0 c 2.8,0 5,2.2 5,5 l 0,111.5 c 0,2.8 -2.2,5.1 -5,5.1 z m -106.6,-10 101.5,0 0,-101.6 -101.5,0 0,101.6 z"
           style="fill:#e3c049"
           id="path231"
           inkscape:connector-curvature="0" /></g><g
         id="g233"><path
           d="m 611.8,266.1 -111.5,0 c -2.8,0 -5,-2.2 -5,-5 l 0,-111.5 c 0,-2.8 2.2,-5 5,-5 l 111.5,0 c 2.8,0 5,2.2 5,5 l 0,111.5 c 0,2.8 -2.2,5 -5,5 z m -106.5,-10 101.5,0 0,-101.5 -101.5,0 0,101.5 z"
           style="fill:#e3c049"
           id="path235"
           inkscape:connector-curvature="0" /></g><g
         id="g237"><path
           d="m 723.4,266.1 -111.6,0 c -2.8,0 -5,-2.2 -5,-5 l 0,-111.5 c 0,-2.8 2.2,-5 5,-5 l 111.5,0 c 2.8,0 5,2.2 5,5 l 0,111.5 c 0.1,2.8 -2.2,5 -4.9,5 z m -106.6,-10 101.5,0 0,-101.5 -101.5,0 0,101.5 z"
           style="fill:#e3c049"
           id="path239"
           inkscape:connector-curvature="0" /></g><g
         id="g241"><path
           d="m 834.9,266.1 -111.5,0 c -2.8,0 -5,-2.2 -5,-5 l 0,-111.5 c 0,-2.8 2.2,-5 5,-5 l 111.5,0 c 2.8,0 5,2.2 5,5 l 0,111.5 c 0,2.8 -2.2,5 -5,5 z m -106.5,-10 101.5,0 0,-101.5 -101.5,0 0,101.5 z"
           style="fill:#e3c049"
           id="path243"
           inkscape:connector-curvature="0" /></g><g
         id="g245"><path
           d="m 946.5,266.1 -111.6,0 c -2.8,0 -5,-2.2 -5,-5 l 0,-111.5 c 0,-2.8 2.2,-5 5,-5 l 111.5,0 c 2.8,0 5,2.2 5,5 l 0,111.5 c 0.1,2.8 -2.2,5 -4.9,5 z m -106.6,-10 101.5,0 0,-101.5 -101.5,0 0,101.5 z"
           style="fill:#e3c049"
           id="path247"
           inkscape:connector-curvature="0" /></g><g
         id="g249"><path
           d="m 1058,266.1 -111.5,0 c -2.8,0 -5,-2.2 -5,-5 l 0,-111.5 c 0,-2.8 2.2,-5 5,-5 l 111.5,0 c 2.8,0 5,2.2 5,5 l 0,111.5 c 0,2.8 -2.2,5 -5,5 z m -106.5,-10 101.5,0 0,-101.5 -101.5,0 0,101.5 z"
           style="fill:#e3c049"
           id="path251"
           inkscape:connector-curvature="0" /></g><g
         id="g253"><path
           d="m 1169.6,266.1 -111.6,0 c -2.8,0 -5,-2.2 -5,-5 l 0,-111.5 c 0,-2.8 2.2,-5 5,-5 l 111.5,0 c 2.8,0 5,2.2 5,5 l 0,111.5 c 0.1,2.8 -2.2,5 -4.9,5 z m -106.6,-10 101.5,0 0,-101.5 -101.5,0 0,101.5 z"
           style="fill:#e3c049"
           id="path255"
           inkscape:connector-curvature="0" /></g><g
         id="g257"><path
           d="m 500.3,266.1 -111.6,0 c -2.8,0 -5,-2.2 -5,-5 l 0,-111.5 c 0,-2.8 2.2,-5 5,-5 l 111.5,0 c 2.8,0 5,2.2 5,5 l 0,111.5 c 0.1,2.8 -2.2,5 -4.9,5 z m -106.6,-10 101.5,0 0,-101.5 -101.5,0 0,101.5 z"
           style="fill:#e3c049"
           id="path259"
           inkscape:connector-curvature="0" /></g><g
         id="g261"><path
           d="m 1281.1,266.1 -111.5,0 c -2.8,0 -5,-2.2 -5,-5 l 0,-111.5 c 0,-2.8 2.2,-5 5,-5 l 111.5,0 c 2.8,0 5,2.2 5,5 l 0,111.5 c 0,2.8 -2.2,5 -5,5 z m -106.5,-10 101.5,0 0,-101.5 -101.5,0 0,101.5 z"
           style="fill:#e3c049"
           id="path263"
           inkscape:connector-curvature="0" /></g><g
         id="g265"><path
           d="m 1392.6,266.1 -111.5,0 c -2.8,0 -5,-2.2 -5,-5 l 0,-111.5 c 0,-2.8 2.2,-5 5,-5 l 111.5,0 c 2.8,0 5,2.2 5,5 l 0,111.5 c 0,2.8 -2.2,5 -5,5 z m -106.5,-10 101.5,0 0,-101.5 -101.5,0 0,101.5 z"
           style="fill:#e3c049"
           id="path267"
           inkscape:connector-curvature="0" /></g><g
         id="g269"><path
           d="m 1504.2,266.1 -111.5,0 c -2.8,0 -5,-2.2 -5,-5 l 0,-111.5 c 0,-2.8 2.2,-5 5,-5 l 111.5,0 c 2.8,0 5,2.2 5,5 l 0,111.5 c 0,2.8 -2.2,5 -5,5 z m -106.6,-10 101.5,0 0,-101.5 -101.5,0 0,101.5 z"
           style="fill:#e3c049"
           id="path271"
           inkscape:connector-curvature="0" /></g><g
         id="g273"><path
           d="m 1504.2,600.8 -111.5,0 c -2.8,0 -5,-2.2 -5,-5 l 0,-111.6 c 0,-2.8 2.2,-5 5,-5 l 111.5,0 c 2.8,0 5,2.2 5,5 l 0,111.5 c 0,2.8 -2.2,5.1 -5,5.1 z m -106.6,-10 101.5,0 0,-101.6 -101.5,0 0,101.6 z"
           style="fill:#e3c049"
           id="path275"
           inkscape:connector-curvature="0" /></g><g
         id="g277"><path
           d="m 1504.2,712.3 -111.5,0 c -2.8,0 -5,-2.2 -5,-5 l 0,-111.5 c 0,-2.8 2.2,-5 5,-5 l 111.5,0 c 2.8,0 5,2.2 5,5 l 0,111.5 c 0,2.8 -2.2,5 -5,5 z m -106.6,-10 101.5,0 0,-101.5 -101.5,0 0,101.5 z"
           style="fill:#e3c049"
           id="path279"
           inkscape:connector-curvature="0" /></g><g
         id="g281"><path
           d="m 1504.2,823.9 -111.5,0 c -2.8,0 -5,-2.2 -5,-5 l 0,-111.6 c 0,-2.8 2.2,-5 5,-5 l 111.5,0 c 2.8,0 5,2.2 5,5 l 0,111.5 c 0,2.8 -2.2,5.1 -5,5.1 z m -106.6,-10 101.5,0 0,-101.6 -101.5,0 0,101.6 z"
           style="fill:#e3c049"
           id="path283"
           inkscape:connector-curvature="0" /></g><g
         id="g285"><path
           d="m 1504.2,935.4 -111.5,0 c -2.8,0 -5,-2.2 -5,-5 l 0,-111.5 c 0,-2.8 2.2,-5 5,-5 l 111.5,0 c 2.8,0 5,2.2 5,5 l 0,111.5 c 0,2.8 -2.2,5 -5,5 z m -106.6,-10 101.5,0 0,-101.5 -101.5,0 0,101.5 z"
           style="fill:#e3c049"
           id="path287"
           inkscape:connector-curvature="0" /></g></g><path
       d="m 1696.1,144.6 -415,0 c -2.5,0 -4.6,1.8 -4.9,4.3 -0.4,2.5 1.1,4.8 3.5,5.5 58.5,17.5 92.2,32.4 116.2,51.5 23.6,18.7 37.8,41.2 59.2,75.3 8.4,13.3 17.9,28.4 29.4,45.5 29.9,44.5 72.3,60.6 109.7,74.7 26,9.8 50.6,19.1 68.2,36.6 19.6,19.4 28.7,47 28.7,86.8 0,2.8 2.2,5 5,5 2.8,0 5,-2.2 5,-5 l 0,-375.2 c 0,-2.8 -2.3,-5 -5,-5 z"
       style="fill:#f3f6e6"
       id="path289"
       inkscape:connector-curvature="0" /><g
       id="g291"><g
         id="g293"><rect
           x="1169.6"
           y="524.79999"
           width="526.5"
           height="334.60001"
           style="fill:#f3f6e6"
           id="rect295" /><path
           d="m 1696.1,864.4 -526.5,0 c -2.8,0 -5,-2.2 -5,-5 l 0,-334.6 c 0,-2.8 2.2,-5 5,-5 l 526.5,0 c 2.8,0 5,2.2 5,5 l 0,334.6 c 0,2.8 -2.3,5 -5,5 z m -521.5,-10 516.5,0 0,-324.6 -516.5,0 0,324.6 z"
           style="fill:#383a48"
           id="path297"
           inkscape:connector-curvature="0" /></g><g
         id="g299"><rect
           x="1169.6"
           y="524.79999"
           width="526.5"
           height="107.2"
           style="fill:#e0719e"
           id="rect301" /><path
           d="m 1696.1,637 -526.5,0 c -2.8,0 -5,-2.2 -5,-5 l 0,-107.2 c 0,-2.8 2.2,-5 5,-5 l 526.5,0 c 2.8,0 5,2.2 5,5 l 0,107.2 c 0,2.7 -2.3,5 -5,5 z m -521.5,-10 516.5,0 0,-97.2 -516.5,0 0,97.2 z"
           style="fill:#383a48"
           id="path303"
           inkscape:connector-curvature="0" /></g><g
         id="g305"><g
           id="g307"><rect
             x="1205.2"
             y="551.79999"
             width="57.900002"
             height="10"
             style="fill:#383a48"
             id="rect309" /></g><g
           id="g311"><rect
             x="1205.2"
             y="573.40002"
             width="57.900002"
             height="10"
             style="fill:#383a48"
             id="rect313" /></g><g
           id="g315"><rect
             x="1205.2"
             y="594.90002"
             width="57.900002"
             height="10"
             style="fill:#383a48"
             id="rect317" /></g></g><g
         id="g319"><rect
           x="1232.6"
           y="708.40002"
           width="400.5"
           height="86"
           style="fill:#7fd6c2"
           id="rect321" /></g></g><g
       id="g323"><g
         id="g325"><g
           id="g327"><g
             id="g329"><circle
               cx="716.90002"
               cy="168.5"
               r="5.1999998"
               style="fill:#383a48"
               id="circle331" /></g></g><g
           id="g333"><g
             id="g335"><circle
               cx="716.90002"
               cy="194.3"
               r="5.1999998"
               style="fill:#383a48"
               id="circle337" /></g></g><g
           id="g339"><g
             id="g341"><circle
               cx="716.90002"
               cy="220.10001"
               r="5.1999998"
               style="fill:#383a48"
               id="circle343" /></g></g><g
           id="g345"><g
             id="g347"><circle
               cx="691.09998"
               cy="168.5"
               r="5.1999998"
               style="fill:#383a48"
               id="circle349" /></g></g><g
           id="g351"><g
             id="g353"><circle
               cx="691.09998"
               cy="194.3"
               r="5.1999998"
               style="fill:#383a48"
               id="circle355" /></g></g><g
           id="g357"><g
             id="g359"><circle
               cx="691.09998"
               cy="220.10001"
               r="5.1999998"
               style="fill:#383a48"
               id="circle361" /></g></g><g
           id="g363"><g
             id="g365"><circle
               cx="691.09998"
               cy="246"
               r="5.1999998"
               style="fill:#383a48"
               id="circle367" /></g></g><g
           id="g369"><g
             id="g371"><circle
               cx="691.09998"
               cy="271.79999"
               r="5.1999998"
               style="fill:#383a48"
               id="circle373" /></g></g><g
           id="g375"><g
             id="g377"><circle
               cx="665.29999"
               cy="168.5"
               r="5.1999998"
               style="fill:#383a48"
               id="circle379" /></g></g><g
           id="g381"><g
             id="g383"><circle
               cx="665.29999"
               cy="194.3"
               r="5.1999998"
               style="fill:#383a48"
               id="circle385" /></g></g><g
           id="g387"><g
             id="g389"><circle
               cx="665.29999"
               cy="220.10001"
               r="5.1999998"
               style="fill:#383a48"
               id="circle391" /></g></g><g
           id="g393"><g
             id="g395"><circle
               cx="665.29999"
               cy="246"
               r="5.1999998"
               style="fill:#383a48"
               id="circle397" /></g></g><g
           id="g399"><g
             id="g401"><circle
               cx="665.29999"
               cy="271.79999"
               r="5.1999998"
               style="fill:#383a48"
               id="circle403" /></g></g><g
           id="g405"><g
             id="g407"><circle
               cx="665.29999"
               cy="297.70001"
               r="5.1999998"
               style="fill:#383a48"
               id="circle409" /></g></g><g
           id="g411"><g
             id="g413"><circle
               cx="639.40002"
               cy="168.5"
               r="5.1999998"
               style="fill:#383a48"
               id="circle415" /></g></g><g
           id="g417"><g
             id="g419"><circle
               cx="639.40002"
               cy="194.3"
               r="5.1999998"
               style="fill:#383a48"
               id="circle421" /></g></g><g
           id="g423"><g
             id="g425"><circle
               cx="639.40002"
               cy="220.10001"
               r="5.1999998"
               style="fill:#383a48"
               id="circle427" /></g></g><g
           id="g429"><g
             id="g431"><circle
               cx="639.40002"
               cy="246"
               r="5.1999998"
               style="fill:#383a48"
               id="circle433" /></g></g><g
           id="g435"><g
             id="g437"><circle
               cx="639.40002"
               cy="271.79999"
               r="5.1999998"
               style="fill:#383a48"
               id="circle439" /></g></g><g
           id="g441"><g
             id="g443"><circle
               cx="639.40002"
               cy="297.70001"
               r="5.1999998"
               style="fill:#383a48"
               id="circle445" /></g></g><g
           id="g447"><g
             id="g449"><circle
               cx="613.59998"
               cy="168.5"
               r="5.1999998"
               style="fill:#383a48"
               id="circle451" /></g></g><g
           id="g453"><g
             id="g455"><circle
               cx="613.59998"
               cy="194.3"
               r="5.1999998"
               style="fill:#383a48"
               id="circle457" /></g></g><g
           id="g459"><g
             id="g461"><circle
               cx="613.59998"
               cy="220.10001"
               r="5.1999998"
               style="fill:#383a48"
               id="circle463" /></g></g><g
           id="g465"><g
             id="g467"><circle
               cx="613.59998"
               cy="246"
               r="5.1999998"
               style="fill:#383a48"
               id="circle469" /></g></g><g
           id="g471"><g
             id="g473"><circle
               cx="613.59998"
               cy="271.79999"
               r="5.1999998"
               style="fill:#383a48"
               id="circle475" /></g></g><g
           id="g477"><g
             id="g479"><circle
               cx="613.59998"
               cy="297.70001"
               r="5.1999998"
               style="fill:#383a48"
               id="circle481" /></g></g><g
           id="g483"><g
             id="g485"><circle
               cx="613.59998"
               cy="323.5"
               r="5.1999998"
               style="fill:#383a48"
               id="circle487" /></g></g><g
           id="g489"><g
             id="g491"><circle
               cx="587.70001"
               cy="168.5"
               r="5.1999998"
               style="fill:#383a48"
               id="circle493" /></g></g><g
           id="g495"><g
             id="g497"><circle
               cx="587.70001"
               cy="194.3"
               r="5.1999998"
               style="fill:#383a48"
               id="circle499" /></g></g><g
           id="g501"><g
             id="g503"><circle
               cx="587.70001"
               cy="220.10001"
               r="5.1999998"
               style="fill:#383a48"
               id="circle505" /></g></g><g
           id="g507"><g
             id="g509"><circle
               cx="587.70001"
               cy="246"
               r="5.1999998"
               style="fill:#383a48"
               id="circle511" /></g></g><g
           id="g513"><g
             id="g515"><circle
               cx="587.70001"
               cy="271.79999"
               r="5.1999998"
               style="fill:#383a48"
               id="circle517" /></g></g><g
           id="g519"><g
             id="g521"><circle
               cx="587.70001"
               cy="297.70001"
               r="5.1999998"
               style="fill:#383a48"
               id="circle523" /></g></g><g
           id="g525"><g
             id="g527"><circle
               cx="587.70001"
               cy="323.5"
               r="5.1999998"
               style="fill:#383a48"
               id="circle529" /></g></g><g
           id="g531"><g
             id="g533"><circle
               cx="587.70001"
               cy="349.29999"
               r="5.1999998"
               style="fill:#383a48"
               id="circle535" /></g></g><g
           id="g537"><g
             id="g539"><circle
               cx="561.90002"
               cy="168.5"
               r="5.1999998"
               style="fill:#383a48"
               id="circle541" /></g></g><g
           id="g543"><g
             id="g545"><circle
               cx="561.90002"
               cy="194.3"
               r="5.1999998"
               style="fill:#383a48"
               id="circle547" /></g></g><g
           id="g549"><g
             id="g551"><circle
               cx="561.90002"
               cy="220.10001"
               r="5.1999998"
               style="fill:#383a48"
               id="circle553" /></g></g><g
           id="g555"><g
             id="g557"><circle
               cx="561.90002"
               cy="246"
               r="5.1999998"
               style="fill:#383a48"
               id="circle559" /></g></g><g
           id="g561"><g
             id="g563"><circle
               cx="561.90002"
               cy="271.79999"
               r="5.1999998"
               style="fill:#383a48"
               id="circle565" /></g></g><g
           id="g567"><g
             id="g569"><circle
               cx="561.90002"
               cy="297.70001"
               r="5.1999998"
               style="fill:#383a48"
               id="circle571" /></g></g><g
           id="g573"><g
             id="g575"><circle
               cx="561.90002"
               cy="323.5"
               r="5.1999998"
               style="fill:#383a48"
               id="circle577" /></g></g><g
           id="g579"><g
             id="g581"><circle
               cx="561.90002"
               cy="349.29999"
               r="5.1999998"
               style="fill:#383a48"
               id="circle583" /></g></g><g
           id="g585"><g
             id="g587"><circle
               cx="536.09998"
               cy="168.5"
               r="5.1999998"
               style="fill:#383a48"
               id="circle589" /></g></g><g
           id="g591"><g
             id="g593"><circle
               cx="536.09998"
               cy="194.3"
               r="5.1999998"
               style="fill:#383a48"
               id="circle595" /></g></g><g
           id="g597"><g
             id="g599"><circle
               cx="536.09998"
               cy="220.10001"
               r="5.1999998"
               style="fill:#383a48"
               id="circle601" /></g></g><g
           id="g603"><g
             id="g605"><circle
               cx="536.09998"
               cy="246"
               r="5.1999998"
               style="fill:#383a48"
               id="circle607" /></g></g><g
           id="g609"><g
             id="g611"><circle
               cx="536.09998"
               cy="271.79999"
               r="5.1999998"
               style="fill:#383a48"
               id="circle613" /></g></g><g
           id="g615"><g
             id="g617"><circle
               cx="536.09998"
               cy="297.70001"
               r="5.1999998"
               style="fill:#383a48"
               id="circle619" /></g></g><g
           id="g621"><g
             id="g623"><circle
               cx="536.09998"
               cy="323.5"
               r="5.1999998"
               style="fill:#383a48"
               id="circle625" /></g></g><g
           id="g627"><g
             id="g629"><circle
               cx="536.09998"
               cy="349.29999"
               r="5.1999998"
               style="fill:#383a48"
               id="circle631" /></g></g><g
           id="g633"><g
             id="g635"><circle
               cx="536.09998"
               cy="375.20001"
               r="5.1999998"
               style="fill:#383a48"
               id="circle637" /></g></g><g
           id="g639"><g
             id="g641"><circle
               cx="510.20001"
               cy="168.5"
               r="5.1999998"
               style="fill:#383a48"
               id="circle643" /></g></g><g
           id="g645"><g
             id="g647"><circle
               cx="510.20001"
               cy="194.3"
               r="5.1999998"
               style="fill:#383a48"
               id="circle649" /></g></g><g
           id="g651"><g
             id="g653"><circle
               cx="510.20001"
               cy="220.10001"
               r="5.1999998"
               style="fill:#383a48"
               id="circle655" /></g></g><g
           id="g657"><g
             id="g659"><circle
               cx="510.20001"
               cy="246"
               r="5.1999998"
               style="fill:#383a48"
               id="circle661" /></g></g><g
           id="g663"><g
             id="g665"><circle
               cx="510.20001"
               cy="271.79999"
               r="5.1999998"
               style="fill:#383a48"
               id="circle667" /></g></g><g
           id="g669"><g
             id="g671"><circle
               cx="510.20001"
               cy="297.70001"
               r="5.1999998"
               style="fill:#383a48"
               id="circle673" /></g></g><g
           id="g675"><g
             id="g677"><circle
               cx="510.20001"
               cy="323.5"
               r="5.1999998"
               style="fill:#383a48"
               id="circle679" /></g></g><g
           id="g681"><g
             id="g683"><circle
               cx="510.20001"
               cy="349.29999"
               r="5.1999998"
               style="fill:#383a48"
               id="circle685" /></g></g><g
           id="g687"><g
             id="g689"><circle
               cx="510.20001"
               cy="375.20001"
               r="5.1999998"
               style="fill:#383a48"
               id="circle691" /></g></g><g
           id="g693"><g
             id="g695"><circle
               cx="484.39999"
               cy="168.5"
               r="5.1999998"
               style="fill:#383a48"
               id="circle697" /></g></g><g
           id="g699"><g
             id="g701"><circle
               cx="484.39999"
               cy="194.3"
               r="5.1999998"
               style="fill:#383a48"
               id="circle703" /></g></g><g
           id="g705"><g
             id="g707"><circle
               cx="484.39999"
               cy="220.10001"
               r="5.1999998"
               style="fill:#383a48"
               id="circle709" /></g></g><g
           id="g711"><g
             id="g713"><circle
               cx="484.39999"
               cy="246"
               r="5.1999998"
               style="fill:#383a48"
               id="circle715" /></g></g><g
           id="g717"><g
             id="g719"><circle
               cx="484.39999"
               cy="271.79999"
               r="5.1999998"
               style="fill:#383a48"
               id="circle721" /></g></g><g
           id="g723"><g
             id="g725"><circle
               cx="484.39999"
               cy="297.70001"
               r="5.1999998"
               style="fill:#383a48"
               id="circle727" /></g></g><g
           id="g729"><g
             id="g731"><circle
               cx="484.39999"
               cy="323.5"
               r="5.1999998"
               style="fill:#383a48"
               id="circle733" /></g></g><g
           id="g735"><g
             id="g737"><circle
               cx="484.39999"
               cy="349.29999"
               r="5.1999998"
               style="fill:#383a48"
               id="circle739" /></g></g><g
           id="g741"><g
             id="g743"><circle
               cx="484.39999"
               cy="375.20001"
               r="5.1999998"
               style="fill:#383a48"
               id="circle745" /></g></g><g
           id="g747"><g
             id="g749"><circle
               cx="458.60001"
               cy="168.5"
               r="5.1999998"
               style="fill:#383a48"
               id="circle751" /></g></g><g
           id="g753"><g
             id="g755"><circle
               cx="458.60001"
               cy="194.3"
               r="5.1999998"
               style="fill:#383a48"
               id="circle757" /></g></g><g
           id="g759"><g
             id="g761"><circle
               cx="458.60001"
               cy="220.10001"
               r="5.1999998"
               style="fill:#383a48"
               id="circle763" /></g></g><g
           id="g765"><g
             id="g767"><circle
               cx="458.60001"
               cy="246"
               r="5.1999998"
               style="fill:#383a48"
               id="circle769" /></g></g><g
           id="g771"><g
             id="g773"><circle
               cx="458.60001"
               cy="271.79999"
               r="5.1999998"
               style="fill:#383a48"
               id="circle775" /></g></g><g
           id="g777"><g
             id="g779"><circle
               cx="458.60001"
               cy="297.70001"
               r="5.1999998"
               style="fill:#383a48"
               id="circle781" /></g></g><g
           id="g783"><g
             id="g785"><circle
               cx="458.60001"
               cy="323.5"
               r="5.1999998"
               style="fill:#383a48"
               id="circle787" /></g></g><g
           id="g789"><g
             id="g791"><circle
               cx="458.60001"
               cy="349.29999"
               r="5.1999998"
               style="fill:#383a48"
               id="circle793" /></g></g><g
           id="g795"><g
             id="g797"><circle
               cx="458.60001"
               cy="375.20001"
               r="5.1999998"
               style="fill:#383a48"
               id="circle799" /></g></g><g
           id="g801"><g
             id="g803"><circle
               cx="458.60001"
               cy="401"
               r="5.1999998"
               style="fill:#383a48"
               id="circle805" /></g></g><g
           id="g807"><g
             id="g809"><circle
               cx="432.70001"
               cy="168.5"
               r="5.1999998"
               style="fill:#383a48"
               id="circle811" /></g></g><g
           id="g813"><g
             id="g815"><circle
               cx="432.70001"
               cy="194.3"
               r="5.1999998"
               style="fill:#383a48"
               id="circle817" /></g></g><g
           id="g819"><g
             id="g821"><circle
               cx="432.70001"
               cy="220.10001"
               r="5.1999998"
               style="fill:#383a48"
               id="circle823" /></g></g><g
           id="g825"><g
             id="g827"><circle
               cx="432.70001"
               cy="246"
               r="5.1999998"
               style="fill:#383a48"
               id="circle829" /></g></g><g
           id="g831"><g
             id="g833"><circle
               cx="432.70001"
               cy="271.79999"
               r="5.1999998"
               style="fill:#383a48"
               id="circle835" /></g></g><g
           id="g837"><g
             id="g839"><circle
               cx="432.70001"
               cy="297.70001"
               r="5.1999998"
               style="fill:#383a48"
               id="circle841" /></g></g><g
           id="g843"><g
             id="g845"><circle
               cx="432.70001"
               cy="323.5"
               r="5.1999998"
               style="fill:#383a48"
               id="circle847" /></g></g><g
           id="g849"><g
             id="g851"><circle
               cx="432.70001"
               cy="349.29999"
               r="5.1999998"
               style="fill:#383a48"
               id="circle853" /></g></g><g
           id="g855"><g
             id="g857"><circle
               cx="432.70001"
               cy="375.20001"
               r="5.1999998"
               style="fill:#383a48"
               id="circle859" /></g></g><g
           id="g861"><g
             id="g863"><circle
               cx="432.70001"
               cy="401"
               r="5.1999998"
               style="fill:#383a48"
               id="circle865" /></g></g><g
           id="g867"><g
             id="g869"><circle
               cx="406.89999"
               cy="168.5"
               r="5.1999998"
               style="fill:#383a48"
               id="circle871" /></g></g><g
           id="g873"><g
             id="g875"><circle
               cx="406.89999"
               cy="194.3"
               r="5.1999998"
               style="fill:#383a48"
               id="circle877" /></g></g><g
           id="g879"><g
             id="g881"><circle
               cx="406.89999"
               cy="220.10001"
               r="5.1999998"
               style="fill:#383a48"
               id="circle883" /></g></g><g
           id="g885"><g
             id="g887"><circle
               cx="406.89999"
               cy="246"
               r="5.1999998"
               style="fill:#383a48"
               id="circle889" /></g></g><g
           id="g891"><g
             id="g893"><circle
               cx="406.89999"
               cy="271.79999"
               r="5.1999998"
               style="fill:#383a48"
               id="circle895" /></g></g><g
           id="g897"><g
             id="g899"><circle
               cx="406.89999"
               cy="297.70001"
               r="5.1999998"
               style="fill:#383a48"
               id="circle901" /></g></g><g
           id="g903"><g
             id="g905"><circle
               cx="406.89999"
               cy="323.5"
               r="5.1999998"
               style="fill:#383a48"
               id="circle907" /></g></g><g
           id="g909"><g
             id="g911"><circle
               cx="406.89999"
               cy="349.29999"
               r="5.1999998"
               style="fill:#383a48"
               id="circle913" /></g></g><g
           id="g915"><g
             id="g917"><circle
               cx="406.89999"
               cy="375.20001"
               r="5.1999998"
               style="fill:#383a48"
               id="circle919" /></g></g><g
           id="g921"><g
             id="g923"><circle
               cx="406.89999"
               cy="401"
               r="5.1999998"
               style="fill:#383a48"
               id="circle925" /></g></g></g></g><path
       d="m 891.1,925.4 c -52.5,-4.1 -95.8,-17.5 -132.4,-40.8 -32.6,-20.8 -57,-47.5 -80.6,-73.3 -22.5,-24.6 -45.8,-50.1 -75.9,-70 -33.9,-22.3 -73,-35.2 -119.7,-39.2 -51.4,-4.5 -95.1,-17.8 -129.8,-39.6 -30.6,-19.2 -53.6,-45.2 -66.6,-75 -11,-25.2 -14.8,-53 -10.9,-80.3 3.8,-27.2 15,-53.4 32.4,-75.6 28.8,-37 85.8,-56.2 151.8,-78.5 C 512,335.3 566.5,317 615,286.8 c 55.8,-34.7 92.9,-79 113.3,-135.5 0.6,-1.5 0.3,-3.2 -0.6,-4.6 -0.9,-1.3 -2.5,-2.1 -4.1,-2.1 l -499.7,0 c -2.8,0 -5,2.2 -5,5 l 0,780.8 c 0,2.8 2.2,5 5,5 l 666.7,0 c 2.7,0 4.9,-2.1 5,-4.8 0.1,-2.7 -1.8,-5 -4.5,-5.2 z"
       style="fill:#f3f6e6"
       id="path927"
       inkscape:connector-curvature="0" /><g
       id="g929"><path
         d="m 946.6,934.6 c -2.8,0 -5,-2.2 -5,-5 l 0,-552.8 c 0,-2.8 2.2,-5 5,-5 2.8,0 5,2.2 5,5 l 0,552.7 c 0,2.8 -2.2,5.1 -5,5.1 z"
         style="fill:#383a48"
         id="path931"
         inkscape:connector-curvature="0" /></g><g
       id="g933"><polygon
         points="572.9,811.1 452.1,930.4 391.2,860.3 518.7,747.6 391.2,683.8 735,570.6 818.2,543.2 777.9,623.2 623.3,929.6 "
         style="fill:#f3f6e6"
         id="polygon935" /><path
         d="m 452.1,935.4 c -0.1,0 -0.1,0 -0.2,0 -1.4,-0.1 -2.7,-0.7 -3.6,-1.7 l -60.9,-70.2 c -1.8,-2.1 -1.6,-5.2 0.5,-7 L 509.8,748.8 389,688.2 c -1.8,-0.9 -2.9,-2.8 -2.7,-4.8 0.1,-2 1.5,-3.8 3.4,-4.4 l 343.8,-113.2 83.2,-27.4 c 1.9,-0.6 4,0 5.4,1.5 1.3,1.5 1.6,3.7 0.7,5.5 l -40.3,80 -154.7,306.4 c -0.9,1.7 -2.6,2.7 -4.5,2.7 -0.1,0 -0.1,0 -0.2,0 -1.9,-0.1 -3.7,-1.2 -4.4,-3 L 571.1,819.8 455.6,934 c -0.9,0.9 -2.2,1.4 -3.5,1.4 z m -53.8,-74.7 54.1,62.4 117,-115.6 c 1.2,-1.2 2.9,-1.7 4.5,-1.3 1.6,0.3 3,1.4 3.6,2.9 l 46.2,108.6 149.7,-296.8 34.9,-69.2 -71.7,23.6 -332.3,109.4 116.7,58.4 c 1.5,0.7 2.5,2.2 2.7,3.8 0.2,1.6 -0.4,3.3 -1.6,4.4 L 398.3,860.7 Z"
         style="fill:#383a48"
         id="path937"
         inkscape:connector-curvature="0" /><path
         d="m 822,539.9 c -1.3,-1.5 -3.4,-2.1 -5.4,-1.5 L 751.1,560 c -1.8,0.6 -3.1,2.1 -3.4,3.9 -2.1,12.9 2.2,26.1 11.4,35.3 7.2,7.2 16.9,11.5 27.1,11.9 0.1,0 0.1,0 0.2,0 1.9,0 3.6,-1.1 4.5,-2.7 l 31.8,-63 c 0.9,-1.8 0.6,-4 -0.7,-5.5 z"
         style="fill:#383a48"
         id="path939"
         inkscape:connector-curvature="0" /></g><g
       id="g941"><g
         id="g943"><g
           id="g945"><ellipse
             transform="matrix(0.8449,-0.5349,0.5349,0.8449,-204.4711,652.2465)"
             cx="1022.6"
             cy="678.70001"
             rx="83.699997"
             ry="52"
             style="fill:#7fd6c2"
             id="ellipse947" /></g><g
           id="g949"><path
             d="m 991.6,746.5 c -20.1,0 -35.6,-7.2 -43.9,-20.3 -8.4,-13.3 -8.1,-30.7 0.8,-49 8.5,-17.6 24,-34.1 43.7,-46.6 19.7,-12.5 41.3,-19.4 60.8,-19.6 0.2,0 0.5,0 0.7,0 20.1,0 35.6,7.2 43.9,20.3 8.4,13.3 8.1,30.7 -0.8,49 -8.5,17.6 -24,34.1 -43.7,46.6 -19.7,12.5 -41.3,19.4 -60.8,19.6 -0.2,0 -0.5,0 -0.7,0 z m 62,-125.5 c -0.2,0 -0.4,0 -0.6,0 -17.7,0.2 -37.4,6.6 -55.5,18 -18.1,11.5 -32.3,26.6 -40,42.5 -7.3,15.1 -7.8,29.1 -1.3,39.3 6.5,10.2 19.2,15.8 36.1,15.6 17.7,-0.2 37.4,-6.6 55.5,-18 18.1,-11.5 32.3,-26.6 40,-42.5 7.3,-15.1 7.8,-29.1 1.3,-39.3 -6.4,-10.1 -18.9,-15.6 -35.5,-15.6 z"
             style="fill:#383a48"
             id="path951"
             inkscape:connector-curvature="0" /></g></g><g
         id="g953"><path
           d="m 951.9,728.5 c -1.7,0 -3.3,-0.8 -4.2,-2.3 -1.5,-2.3 -0.8,-5.4 1.5,-6.9 l 141.5,-89.6 c 2.3,-1.5 5.4,-0.8 6.9,1.5 1.5,2.3 0.8,5.4 -1.5,6.9 l -141.5,89.6 c -0.9,0.6 -1.8,0.8 -2.7,0.8 z"
           style="fill:#383a48"
           id="path955"
           inkscape:connector-curvature="0" /></g><g
         id="g957"><path
           d="m 984.4,707.9 c -0.3,0 -0.5,0 -0.8,-0.1 -2.7,-0.4 -4.6,-3 -4.2,-5.7 l 10.4,-68.2 c 0.4,-2.7 3,-4.6 5.7,-4.2 2.7,0.4 4.6,3 4.2,5.7 l -10.4,68.2 c -0.4,2.6 -2.5,4.3 -4.9,4.3 z"
           style="fill:#383a48"
           id="path959"
           inkscape:connector-curvature="0" /></g><g
         id="g961"><path
           d="m 1027.9,680.4 c -0.3,0 -0.5,0 -0.8,-0.1 -2.7,-0.4 -4.6,-3 -4.2,-5.7 l 8.8,-57.7 c 0.4,-2.7 3,-4.6 5.7,-4.2 2.7,0.4 4.6,3 4.2,5.7 l -8.8,57.7 c -0.4,2.5 -2.5,4.3 -4.9,4.3 z"
           style="fill:#383a48"
           id="path963"
           inkscape:connector-curvature="0" /></g><g
         id="g965"><path
           d="m 1050.4,727.7 c -0.5,0 -1,-0.1 -1.4,-0.2 l -66.1,-19.7 c -2.6,-0.8 -4.2,-3.6 -3.4,-6.2 0.8,-2.6 3.6,-4.1 6.2,-3.4 l 66.1,19.7 c 2.6,0.8 4.2,3.6 3.4,6.2 -0.6,2.2 -2.6,3.6 -4.8,3.6 z"
           style="fill:#383a48"
           id="path967"
           inkscape:connector-curvature="0" /></g><g
         id="g969"><path
           d="m 1083.8,697.1 c -0.5,0 -1,-0.1 -1.4,-0.2 l -56,-16.7 c -2.6,-0.8 -4.2,-3.6 -3.4,-6.2 0.8,-2.6 3.6,-4.2 6.2,-3.4 l 56,16.7 c 2.6,0.8 4.2,3.6 3.4,6.2 -0.6,2.2 -2.6,3.6 -4.8,3.6 z"
           style="fill:#383a48"
           id="path971"
           inkscape:connector-curvature="0" /></g></g><g
       id="g973"><g
         id="g975"><g
           id="g977"><ellipse
             transform="matrix(0.5349,-0.8449,0.8449,0.5349,-168.5338,1051.1802)"
             cx="870.5"
             cy="678.70001"
             rx="52"
             ry="83.699997"
             style="fill:#7fd6c2"
             id="ellipse979" /></g><g
           id="g981"><path
             d="m 901.6,746.5 c -0.2,0 -0.5,0 -0.7,0 -19.5,-0.2 -41.1,-7.1 -60.8,-19.6 -19.7,-12.5 -35.2,-29 -43.7,-46.6 -8.9,-18.4 -9.2,-35.8 -0.8,-49 8.3,-13.1 23.9,-20.3 43.9,-20.3 0.2,0 0.5,0 0.7,0 19.5,0.2 41.1,7.1 60.8,19.6 19.7,12.5 35.2,29 43.7,46.6 8.9,18.4 9.2,35.8 0.8,49 -8.3,13.1 -23.8,20.3 -43.9,20.3 z M 839.5,621 c -16.5,0 -29.1,5.5 -35.5,15.6 -6.5,10.2 -6,24.2 1.3,39.3 7.7,15.9 21.9,31 40,42.5 18.1,11.5 37.8,17.9 55.5,18 16.8,0.1 29.6,-5.4 36.1,-15.6 6.5,-10.2 6,-24.2 -1.3,-39.3 -7.7,-15.9 -21.9,-31 -40,-42.5 -18.1,-11.5 -37.8,-17.9 -55.5,-18 -0.1,0 -0.3,0 -0.6,0 z"
             style="fill:#383a48"
             id="path983"
             inkscape:connector-curvature="0" /></g></g><g
         id="g985"><path
           d="m 941.3,728.5 c -0.9,0 -1.8,-0.3 -2.7,-0.8 L 797.1,638.1 c -2.3,-1.5 -3,-4.6 -1.5,-6.9 1.5,-2.3 4.6,-3 6.9,-1.5 L 944,719.3 c 2.3,1.5 3,4.6 1.5,6.9 -0.9,1.5 -2.5,2.3 -4.2,2.3 z"
           style="fill:#383a48"
           id="path987"
           inkscape:connector-curvature="0" /></g><g
         id="g989"><path
           d="m 908.8,707.9 c -2.4,0 -4.6,-1.8 -4.9,-4.2 l -10.4,-68.2 c -0.4,-2.7 1.5,-5.3 4.2,-5.7 2.7,-0.4 5.3,1.5 5.7,4.2 l 10.4,68.2 c 0.4,2.7 -1.5,5.3 -4.2,5.7 -0.3,0 -0.5,0 -0.8,0 z"
           style="fill:#383a48"
           id="path991"
           inkscape:connector-curvature="0" /></g><g
         id="g993"><path
           d="m 865.3,680.4 c -2.4,0 -4.6,-1.8 -4.9,-4.2 l -8.8,-57.7 c -0.4,-2.7 1.5,-5.3 4.2,-5.7 2.7,-0.4 5.3,1.5 5.7,4.2 l 8.8,57.7 c 0.4,2.7 -1.5,5.3 -4.2,5.7 -0.3,0 -0.5,0 -0.8,0 z"
           style="fill:#383a48"
           id="path995"
           inkscape:connector-curvature="0" /></g><g
         id="g997"><path
           d="m 842.8,727.7 c -2.2,0 -4.1,-1.4 -4.8,-3.6 -0.8,-2.6 0.7,-5.4 3.4,-6.2 l 66.1,-19.7 c 2.7,-0.8 5.4,0.7 6.2,3.4 0.8,2.6 -0.7,5.4 -3.4,6.2 l -66.1,19.7 c -0.5,0.1 -1,0.2 -1.4,0.2 z"
           style="fill:#383a48"
           id="path999"
           inkscape:connector-curvature="0" /></g><g
         id="g1001"><path
           d="m 809.4,697.1 c -2.2,0 -4.1,-1.4 -4.8,-3.6 -0.8,-2.6 0.7,-5.4 3.4,-6.2 l 56,-16.7 c 2.7,-0.8 5.4,0.7 6.2,3.4 0.8,2.6 -0.7,5.4 -3.4,6.2 l -56,16.7 c -0.5,0.1 -1,0.2 -1.4,0.2 z"
           style="fill:#383a48"
           id="path1003"
           inkscape:connector-curvature="0" /></g></g><g
       id="g1005"><path
         d="m 388.7,600.8 c -2.8,0 -5,-2.2 -5,-5 0,-2.8 2.2,-5 5,-5 38.2,0 73.1,-17.4 110.1,-54.7 33.5,-33.8 64.6,-79.9 97.4,-128.7 82.9,-123.2 177,-262.8 350.3,-262.8 80,0 152.2,22.4 220.8,68.5 59.6,40 108.6,92.7 151.8,139.1 63.4,68.2 118.2,127 185.2,127 2.8,0 5,2.2 5,5 0,2.8 -2.2,5 -5,5 -71.4,0 -127.5,-60.3 -192.5,-130.2 -42.8,-46.1 -91.4,-98.3 -150,-137.6 -66.9,-44.9 -137.3,-66.8 -215.2,-66.8 -74.9,0 -141.2,27.2 -202.7,83 -54.4,49.4 -97.5,113.4 -139.2,175.3 -33.1,49.2 -64.4,95.7 -98.6,130.2 -39.1,39.4 -76.4,57.7 -117.4,57.7 z"
         style="fill:#e0719e"
         id="path1007"
         inkscape:connector-curvature="0" /></g><g
       id="g1009"><path
         d="m 1169.6,935.4 -780.9,0 c -2.8,0 -5,-2.2 -5,-5 l 0,-546.8 c 0,-2.8 2.2,-5 5,-5 2.8,0 5,2.2 5,5 l 0,541.8 775.8,0 c 2.8,0 5,2.2 5,5 0.1,2.8 -2.2,5 -4.9,5 z"
         style="fill:#383a48"
         id="path1011"
         inkscape:connector-curvature="0" /></g><g
       id="g1013"><g
         id="g1015"><rect
           x="1101.1"
           y="595.79999"
           width="526.5"
           height="334.60001"
           style="fill:#f3f6e6"
           id="rect1017" /><path
           d="m 1627.6,935.4 -526.5,0 c -2.8,0 -5,-2.2 -5,-5 l 0,-334.6 c 0,-2.8 2.2,-5 5,-5 l 526.5,0 c 2.8,0 5,2.2 5,5 l 0,334.6 c 0,2.8 -2.3,5 -5,5 z m -521.5,-10 516.5,0 0,-324.6 -516.5,0 0,324.6 z"
           style="fill:#383a48"
           id="path1019"
           inkscape:connector-curvature="0" /></g><g
         id="g1021"><rect
           x="1101.1"
           y="595.79999"
           width="526.5"
           height="107.2"
           style="fill:#aac6fc"
           id="rect1023" /><path
           d="m 1627.6,707.9 -526.5,0 c -2.8,0 -5,-2.2 -5,-5 l 0,-107.1 c 0,-2.8 2.2,-5 5,-5 l 526.5,0 c 2.8,0 5,2.2 5,5 l 0,107.2 c 0,2.7 -2.3,4.9 -5,4.9 z m -521.5,-10 516.5,0 0,-97.2 -516.5,0 0,97.2 z"
           style="fill:#383a48"
           id="path1025"
           inkscape:connector-curvature="0" /></g><g
         id="g1027"><g
           id="g1029"><rect
             x="1136.7"
             y="622.79999"
             width="57.900002"
             height="10"
             style="fill:#383a48"
             id="rect1031" /></g><g
           id="g1033"><rect
             x="1136.7"
             y="644.40002"
             width="57.900002"
             height="10"
             style="fill:#383a48"
             id="rect1035" /></g><g
           id="g1037"><rect
             x="1136.7"
             y="665.90002"
             width="57.900002"
             height="10"
             style="fill:#383a48"
             id="rect1039" /></g></g><g
         id="g1041"><rect
           x="1164.1"
           y="779.40002"
           width="400.5"
           height="86"
           style="fill:#7fd6c2"
           id="rect1043" /></g></g><g
       id="g1045"><g
         id="g1047"><path
           d="m 667.5,521.3 c -2.8,0 -5,-2.2 -5,-5 l 0,-111.7 c 0,-2.8 2.2,-5 5,-5 2.8,0 5,2.2 5,5 l 0,111.7 c 0,2.7 -2.3,5 -5,5 z"
           style="fill:#383a48"
           id="path1049"
           inkscape:connector-curvature="0" /></g><g
         id="g1051"><path
           d="m 689.3,436.6 c -1.5,0 -3,-0.7 -4,-2 l -17.7,-23.2 -17.7,23.2 c -1.7,2.2 -4.8,2.6 -7,0.9 -2.2,-1.7 -2.6,-4.8 -0.9,-7 L 663.7,400 c 0.9,-1.2 2.4,-2 4,-2 l 0,0 c 1.6,0 3,0.7 4,2 l 21.7,28.5 c 1.7,2.2 1.2,5.3 -0.9,7 -1.1,0.8 -2.2,1.1 -3.2,1.1 z"
           style="fill:#383a48"
           id="path1053"
           inkscape:connector-curvature="0" /></g></g><g
       id="g1055"><g
         id="g1057"><path
           d="m 1222.5,415.9 c -2.8,0 -5,-2.2 -5,-5 l 0,-94.3 c 0,-2.8 2.2,-5 5,-5 2.8,0 5,2.2 5,5 l 0,94.3 c 0,2.8 -2.2,5 -5,5 z"
           style="fill:#383a48"
           id="path1059"
           inkscape:connector-curvature="0" /></g><g
         id="g1061"><path
           d="m 1201,348.7 c -1.1,0 -2.1,-0.3 -3,-1 -2.2,-1.7 -2.6,-4.8 -0.9,-7 l 21.7,-28.5 c 0.9,-1.2 2.4,-2 4,-2 l 0,0 c 1.6,0 3,0.7 4,2 l 21.7,28.5 c 1.7,2.2 1.2,5.3 -0.9,7 -2.2,1.7 -5.3,1.2 -7,-0.9 l -17.7,-23.2 -17.7,23.2 c -1.3,1.2 -2.7,1.9 -4.2,1.9 z"
           style="fill:#383a48"
           id="path1063"
           inkscape:connector-curvature="0" /></g></g><g
       id="g1065"><path
         d="m 1000.7,912.6 c -2,0 -3.8,-1.2 -4.6,-3.1 -1.1,-2.6 0.2,-5.5 2.7,-6.5 l 31.5,-13 c 2.6,-1.1 5.5,0.2 6.5,2.7 1.1,2.6 -0.2,5.5 -2.7,6.5 l -31.5,13 c -0.6,0.3 -1.2,0.4 -1.9,0.4 z"
         style="fill:#383a48"
         id="path1067"
         inkscape:connector-curvature="0" /></g><g
       id="g1069"><path
         d="m 979.7,886.8 c -1,0 -2,-0.3 -2.8,-0.9 -2.3,-1.6 -2.8,-4.7 -1.3,-7 l 19.5,-28 c 1.6,-2.3 4.7,-2.8 7,-1.3 2.3,1.6 2.8,4.7 1.3,7 l -19.5,28 c -1.1,1.4 -2.6,2.2 -4.2,2.2 z"
         style="fill:#383a48"
         id="path1071"
         inkscape:connector-curvature="0" /></g><g
       id="g1073"><path
         d="m 892.2,912.6 c -0.6,0 -1.3,-0.1 -1.9,-0.4 l -31.5,-13 c -2.6,-1.1 -3.8,-4 -2.7,-6.5 1.1,-2.5 4,-3.8 6.5,-2.7 l 31.5,13 c 2.6,1.1 3.8,4 2.7,6.5 -0.8,1.9 -2.7,3.1 -4.6,3.1 z"
         style="fill:#383a48"
         id="path1075"
         inkscape:connector-curvature="0" /></g><g
       id="g1077"><path
         d="m 913.2,886.8 c -1.6,0 -3.1,-0.8 -4.1,-2.1 l -19.5,-28 c -1.6,-2.3 -1,-5.4 1.3,-7 2.3,-1.6 5.4,-1 7,1.3 l 19.5,28 c 1.6,2.3 1,5.4 -1.3,7 -0.9,0.5 -1.9,0.8 -2.9,0.8 z"
         style="fill:#383a48"
         id="path1079"
         inkscape:connector-curvature="0" /></g><path
       d="m 1696.1,144.6 -114.7,0 c -2.8,0 -5,2.2 -5,5 0,66 53.7,119.7 119.7,119.7 2.8,0 5,-2.2 5,-5 l 0,-114.7 c 0,-2.8 -2.3,-5 -5,-5 z"
       style="fill:#aac6fc"
       id="path1081"
       inkscape:connector-curvature="0" /><g
       id="g1083"><g
         id="g1085"><g
           id="g1087"><g
             id="g1089"><g
               id="g1091"><g
                 id="g1093"><path
                   d="m 1040.9,306.5 c -9.7,23.1 -94.3,107.9 -94.3,107.9 0,0 0.9,-119.8 10.5,-142.9 9.7,-23.1 36.2,-34 59.3,-24.4 23.2,9.7 34.1,36.3 24.5,59.4 z"
                   style="fill:#7fd6c2"
                   id="path1095"
                   inkscape:connector-curvature="0" /></g><g
                 id="g1097"><path
                   d="m 946.6,419.4 c -0.6,0 -1.3,-0.1 -1.9,-0.4 -1.9,-0.8 -3.1,-2.6 -3.1,-4.7 0,-4.9 1,-121 10.9,-144.8 5.2,-12.4 14.9,-22.1 27.3,-27.2 12.4,-5.1 26.1,-5.1 38.5,0.1 12.4,5.2 22.1,14.9 27.2,27.3 5.1,12.4 5.1,26.1 -0.1,38.5 -9.9,23.8 -91.8,106 -95.3,109.5 -0.9,1.2 -2.2,1.7 -3.5,1.7 z M 999,248.7 c -5.2,0 -10.4,1 -15.3,3 -10,4.1 -17.8,11.8 -21.9,21.8 -6.8,16.3 -9.4,89.6 -10,128.6 27.3,-27.9 77.7,-81.2 84.5,-97.5 l 0,0 c 4.2,-9.9 4.2,-20.9 0.1,-30.9 -4.1,-10 -11.8,-17.8 -21.8,-21.9 -5.1,-2.1 -10.3,-3.1 -15.6,-3.1 z"
                   style="fill:#383a48"
                   id="path1099"
                   inkscape:connector-curvature="0" /></g></g><g
               id="g1101"><g
                 id="g1103"><path
                   d="m 1089.5,404.8 c -23.2,9.5 -142.9,9.6 -142.9,9.6 0,0 85.3,-84.1 108.5,-93.6 23.2,-9.5 49.7,1.6 59.2,24.7 9.5,23.3 -1.6,49.8 -24.8,59.3 z"
                   style="fill:#7fd6c2"
                   id="path1105"
                   inkscape:connector-curvature="0" /></g><g
                 id="g1107"><path
                   d="m 946.6,419.4 c -2,0 -3.9,-1.2 -4.6,-3.1 -0.8,-1.9 -0.3,-4 1.1,-5.5 3.5,-3.5 86.3,-84.9 110.1,-94.6 25.7,-10.5 55.2,1.8 65.7,27.5 10.5,25.7 -1.8,55.2 -27.5,65.7 l 0,0 c -23.8,9.8 -139.9,10 -144.8,10 l 0,0 z m 125.6,-96.9 c -5.1,0 -10.3,1 -15.3,3 -16.3,6.7 -70,56.7 -98,83.9 39,-0.4 112.4,-2.5 128.7,-9.2 20.6,-8.5 30.5,-32.1 22,-52.7 -6.4,-15.6 -21.5,-25 -37.4,-25 z"
                   style="fill:#383a48"
                   id="path1109"
                   inkscape:connector-curvature="0" /></g></g><g
               id="g1111"><g
                 id="g1113"><path
                   d="m 1054.5,508.7 c -23.1,-9.7 -107.9,-94.3 -107.9,-94.3 0,0 119.8,0.9 142.9,10.5 23.1,9.7 34,36.2 24.4,59.3 -9.6,23.1 -36.3,34.1 -59.4,24.5 z"
                   style="fill:#7fd6c2"
                   id="path1115"
                   inkscape:connector-curvature="0" /></g><g
                 id="g1117"><path
                   d="m 1072,517.2 c -6.6,0 -13.2,-1.3 -19.4,-3.9 l 0,0 c -23.8,-9.9 -106,-91.8 -109.5,-95.3 -1.4,-1.4 -1.9,-3.6 -1.1,-5.5 0.8,-1.9 2.6,-3.1 4.6,-3.1 l 0,0 c 4.9,0 121,1 144.8,10.9 12.4,5.2 22.1,14.9 27.2,27.3 5.1,12.4 5.1,26.1 -0.1,38.5 -5.2,12.4 -14.9,22.1 -27.3,27.2 -6.3,2.6 -12.8,3.9 -19.2,3.9 z M 958.9,419.6 c 27.9,27.3 81.2,77.7 97.5,84.5 l 0,0 c 9.9,4.2 20.9,4.2 30.9,0.1 10,-4.1 17.8,-11.8 21.9,-21.8 4.2,-9.9 4.2,-20.9 0.1,-30.9 -4.1,-10 -11.8,-17.8 -21.8,-21.9 -16.2,-6.8 -89.6,-9.4 -128.6,-10 z"
                   style="fill:#383a48"
                   id="path1119"
                   inkscape:connector-curvature="0" /></g></g><g
               id="g1121"><g
                 id="g1123"><path
                   d="m 956.2,557.3 c -9.5,-23.2 -9.6,-142.9 -9.6,-142.9 0,0 84.1,85.3 93.6,108.5 9.5,23.2 -1.6,49.7 -24.7,59.2 -23.1,9.5 -49.8,-1.6 -59.3,-24.8 z"
                   style="fill:#7fd6c2"
                   id="path1125"
                   inkscape:connector-curvature="0" /></g><g
                 id="g1127"><path
                   d="m 998.2,590.5 c -6.6,0 -13.2,-1.3 -19.4,-3.9 -12.4,-5.2 -22.1,-14.9 -27.2,-27.3 l 0,0 c -9.8,-23.8 -10,-139.9 -10,-144.8 0,-2 1.2,-3.9 3.1,-4.6 1.9,-0.8 4,-0.3 5.5,1.1 3.5,3.5 84.9,86.3 94.6,110.1 10.5,25.7 -1.8,55.2 -27.5,65.7 -6.2,2.4 -12.6,3.7 -19.1,3.7 z M 951.7,426.8 c 0.4,39 2.5,112.4 9.2,128.7 l 0,0 c 4.1,10 11.8,17.8 21.8,21.9 10,4.2 20.9,4.2 30.9,0.1 20.6,-8.5 30.5,-32.1 22,-52.7 -6.8,-16.3 -56.8,-70 -83.9,-98 z"
                   style="fill:#383a48"
                   id="path1129"
                   inkscape:connector-curvature="0" /></g></g><g
               id="g1131"><g
                 id="g1133"><path
                   d="m 852.3,522.3 c 9.7,-23.1 94.3,-107.9 94.3,-107.9 0,0 -0.9,119.8 -10.5,142.9 -9.7,23.1 -36.2,34 -59.3,24.4 -23.2,-9.7 -34.1,-36.3 -24.5,-59.4 z"
                   style="fill:#7fd6c2"
                   id="path1135"
                   inkscape:connector-curvature="0" /></g><g
                 id="g1137"><path
                   d="m 894.2,590.2 c -6.6,0 -13.2,-1.3 -19.4,-3.9 -12.4,-5.2 -22.1,-14.9 -27.2,-27.3 -5.1,-12.4 -5.1,-26.1 0.1,-38.5 9.9,-23.8 91.8,-106 95.3,-109.5 1.4,-1.4 3.6,-1.9 5.5,-1.1 1.9,0.8 3.1,2.6 3.1,4.7 0,4.9 -1,121 -10.9,144.8 -5.2,12.4 -14.9,22.1 -27.3,27.2 -6.3,2.3 -12.7,3.6 -19.2,3.6 z m 47.2,-163.5 c -27.3,27.9 -77.7,81.2 -84.5,97.5 l 0,0 c -8.6,20.5 1.1,44.2 21.7,52.8 9.9,4.2 20.9,4.2 30.9,0.1 10,-4.1 17.8,-11.8 21.9,-21.8 6.8,-16.2 9.4,-89.5 10,-128.6 z"
                   style="fill:#383a48"
                   id="path1139"
                   inkscape:connector-curvature="0" /></g></g><g
               id="g1141"><g
                 id="g1143"><path
                   d="m 803.7,424 c 23.2,-9.5 142.9,-9.6 142.9,-9.6 0,0 -85.3,84.1 -108.5,93.6 -23.2,9.5 -49.7,-1.6 -59.2,-24.7 -9.5,-23.2 1.6,-49.7 24.8,-59.3 z"
                   style="fill:#7fd6c2"
                   id="path1145"
                   inkscape:connector-curvature="0" /></g><g
                 id="g1147"><path
                   d="m 820.9,516.4 c -6.6,0 -13.2,-1.3 -19.4,-3.9 -12.4,-5.2 -22.1,-14.9 -27.2,-27.3 -10.5,-25.7 1.8,-55.2 27.5,-65.7 l 0,0 c 23.8,-9.8 139.9,-10 144.8,-10 l 0,0 c 2,0 3.9,1.2 4.6,3.1 0.8,1.9 0.3,4 -1.1,5.5 -3.5,3.5 -86.3,84.9 -110.1,94.6 -6.2,2.4 -12.6,3.7 -19.1,3.7 z m -15.3,-87.7 c -20.6,8.5 -30.5,32.1 -22,52.7 4.1,10 11.8,17.8 21.8,21.9 9.9,4.2 20.9,4.2 30.9,0.1 16.3,-6.7 70,-56.7 98,-83.9 -39.1,0.4 -112.4,2.5 -128.7,9.2 l 0,0 z"
                   style="fill:#383a48"
                   id="path1149"
                   inkscape:connector-curvature="0" /></g></g><g
               id="g1151"><g
                 id="g1153"><path
                   d="m 838.7,320.2 c 23.1,9.7 107.9,94.3 107.9,94.3 0,0 -119.8,-0.9 -142.9,-10.5 -23.1,-9.7 -34,-36.2 -24.4,-59.3 9.7,-23.3 36.3,-34.2 59.4,-24.5 z"
                   style="fill:#7fd6c2"
                   id="path1155"
                   inkscape:connector-curvature="0" /></g><g
                 id="g1157"><path
                   d="m 946.6,419.4 0,0 c -5,0 -121,-1 -144.8,-10.9 -25.6,-10.7 -37.8,-40.3 -27,-65.9 5.2,-12.4 14.9,-22.1 27.3,-27.2 12.4,-5.1 26.1,-5.1 38.5,0.1 l 0,0 c 23.8,9.9 106,91.8 109.5,95.3 1.4,1.4 1.9,3.6 1.1,5.5 -0.8,1.9 -2.6,3.1 -4.6,3.1 z M 821.2,321.6 c -5.2,0 -10.4,1 -15.3,3 -10,4.1 -17.8,11.8 -21.9,21.8 -8.6,20.5 1.1,44.2 21.7,52.8 16.3,6.8 89.6,9.4 128.6,10 -27.9,-27.3 -81.2,-77.7 -97.5,-84.5 l 0,0 c -5,-2 -10.3,-3.1 -15.6,-3.1 z"
                   style="fill:#383a48"
                   id="path1159"
                   inkscape:connector-curvature="0" /></g></g><g
               id="g1161"><g
                 id="g1163"><path
                   d="m 937,271.5 c 9.5,23.2 9.6,142.9 9.6,142.9 0,0 -84.1,-85.3 -93.6,-108.5 -9.5,-23.2 1.6,-49.7 24.7,-59.2 23.2,-9.5 49.8,1.6 59.3,24.8 z"
                   style="fill:#7fd6c2"
                   id="path1165"
                   inkscape:connector-curvature="0" /></g><g
                 id="g1167"><path
                   d="m 946.6,419.4 c -1.3,0 -2.6,-0.5 -3.6,-1.5 -3.5,-3.5 -84.9,-86.3 -94.6,-110.1 -5.1,-12.4 -5.1,-26.1 0.1,-38.5 5.2,-12.4 14.9,-22.1 27.3,-27.2 12.4,-5.1 26.1,-5.1 38.5,0.1 12.4,5.2 22.1,14.9 27.2,27.3 l 0,0 c 9.8,23.8 10,139.9 10,144.8 0,2 -1.2,3.9 -3.1,4.6 -0.5,0.4 -1.2,0.5 -1.8,0.5 z M 895,248.3 c -5.2,0 -10.4,1 -15.3,3 -10,4.1 -17.8,11.8 -21.9,21.8 -4.1,10 -4.2,20.9 -0.1,30.9 6.7,16.3 56.7,70 83.9,98 -0.4,-39 -2.5,-112.4 -9.2,-128.7 -4.1,-10 -11.8,-17.8 -21.8,-21.9 -5.1,-2 -10.3,-3.1 -15.6,-3.1 z"
                   style="fill:#383a48"
                   id="path1169"
                   inkscape:connector-curvature="0" /></g></g></g></g><g
           id="g1171"><g
             id="g1173"><g
               id="g1175"><path
                 d="m 992,278.5 c 0,25.1 -45.4,135.9 -45.4,135.9 0,0 -45.4,-110.8 -45.4,-135.9 0,-25.1 20.3,-45.4 45.4,-45.4 25.1,0 45.4,20.4 45.4,45.4 z"
                 style="fill:#f3f6e6"
                 id="path1177"
                 inkscape:connector-curvature="0" /><path
                 d="m 946.6,419.4 c -2,0 -3.9,-1.2 -4.6,-3.1 -1.9,-4.6 -45.7,-112 -45.7,-137.8 0,-27.8 22.6,-50.4 50.4,-50.4 27.8,0 50.4,22.6 50.4,50.4 0,25.7 -43.9,133.2 -45.7,137.8 -0.9,1.9 -2.8,3.1 -4.8,3.1 z m 0,-181.2 c -22.3,0 -40.4,18.1 -40.4,40.4 0,17.6 25.9,86.3 40.4,122.5 C 961,364.8 987,296.2 987,278.5 c 0,-22.2 -18.1,-40.3 -40.4,-40.3 z"
                 style="fill:#383a48"
                 id="path1179"
                 inkscape:connector-curvature="0" /></g><g
               id="g1181"><path
                 d="m 1074.8,350.4 c -17.7,17.7 -128.2,64 -128.2,64 0,0 46.3,-110.4 64,-128.2 17.7,-17.7 46.4,-17.7 64.2,0 17.8,17.7 17.7,46.5 0,64.2 z"
                 style="fill:#f3f6e6"
                 id="path1183"
                 inkscape:connector-curvature="0" /><path
                 d="m 946.6,419.4 c -1.3,0 -2.6,-0.5 -3.5,-1.5 -1.4,-1.4 -1.9,-3.6 -1.1,-5.5 0.1,-0.3 11.8,-28 25.4,-57.6 18.5,-40.1 31.9,-64.4 39.7,-72.2 19.6,-19.6 51.6,-19.6 71.2,0 19.6,19.6 19.6,51.6 0,71.2 -7.8,7.8 -32,21.1 -72.2,39.6 -29.6,13.7 -57.3,25.3 -57.6,25.4 -0.6,0.5 -1.3,0.6 -1.9,0.6 z M 1042.7,278 c -10.3,0 -20.7,3.9 -28.5,11.8 -12.5,12.5 -42.7,79.3 -58.1,115.2 35.8,-15.4 102.7,-45.6 115.2,-58.1 15.7,-15.7 15.7,-41.3 0,-57.1 -7.9,-7.9 -18.3,-11.8 -28.6,-11.8 z"
                 style="fill:#383a48"
                 id="path1185"
                 inkscape:connector-curvature="0" /></g><g
               id="g1187"><path
                 d="m 1082.5,459.8 c -25.1,0 -135.9,-45.4 -135.9,-45.4 0,0 110.8,-45.4 135.9,-45.4 25.1,0 45.4,20.3 45.4,45.4 0,25.1 -20.4,45.4 -45.4,45.4 z"
                 style="fill:#f3f6e6"
                 id="path1189"
                 inkscape:connector-curvature="0" /><path
                 d="m 1082.5,464.8 c -25.7,0 -133.2,-43.9 -137.8,-45.7 -1.9,-0.8 -3.1,-2.6 -3.1,-4.6 0,-2 1.2,-3.9 3.1,-4.6 4.6,-1.9 112,-45.7 137.8,-45.7 27.8,0 50.4,22.6 50.4,50.4 0,27.8 -22.7,50.2 -50.4,50.2 z M 960,414.4 c 36.2,14.5 104.9,40.4 122.5,40.4 22.3,0 40.4,-18.1 40.4,-40.4 0,-22.3 -18.1,-40.4 -40.4,-40.4 -17.7,0.1 -86.3,26 -122.5,40.4 z"
                 style="fill:#383a48"
                 id="path1191"
                 inkscape:connector-curvature="0" /></g><g
               id="g1193"><path
                 d="m 1010.6,542.6 c -17.7,-17.7 -64,-128.2 -64,-128.2 0,0 110.4,46.3 128.2,64 17.8,17.7 17.7,46.4 0,64.2 -17.7,17.8 -46.5,17.7 -64.2,0 z"
                 style="fill:#f3f6e6"
                 id="path1195"
                 inkscape:connector-curvature="0" /><path
                 d="m 1042.7,560.8 c -12.9,0 -25.8,-4.9 -35.6,-14.7 -7.8,-7.8 -21.1,-32 -39.7,-72.2 -13.7,-29.6 -25.3,-57.3 -25.4,-57.6 -0.8,-1.9 -0.4,-4 1.1,-5.5 1.4,-1.4 3.6,-1.9 5.5,-1.1 0.3,0.1 28,11.8 57.6,25.4 40.1,18.5 64.4,31.9 72.2,39.6 19.6,19.6 19.6,51.6 0,71.2 -9.9,10 -22.8,14.9 -35.7,14.9 z M 956,423.9 c 15.4,35.8 45.6,102.7 58.1,115.2 15.7,15.7 41.3,15.7 57.1,0 15.7,-15.7 15.7,-41.3 0,-57.1 -12.5,-12.5 -79.3,-42.7 -115.2,-58.1 z"
                 style="fill:#383a48"
                 id="path1197"
                 inkscape:connector-curvature="0" /></g><g
               id="g1199"><path
                 d="m 901.2,550.3 c 0,-25.1 45.4,-135.9 45.4,-135.9 0,0 45.4,110.8 45.4,135.9 0,25.1 -20.3,45.4 -45.4,45.4 -25.1,0 -45.4,-20.3 -45.4,-45.4 z"
                 style="fill:#f3f6e6"
                 id="path1201"
                 inkscape:connector-curvature="0" /><path
                 d="m 946.6,600.7 c -27.8,0 -50.4,-22.6 -50.4,-50.4 0,-25.7 43.9,-133.2 45.7,-137.8 0.8,-1.9 2.6,-3.1 4.6,-3.1 2,0 3.9,1.2 4.6,3.1 1.9,4.6 45.7,112 45.7,137.8 0.2,27.8 -22.4,50.4 -50.2,50.4 z m 0,-172.9 c -14.5,36.2 -40.4,104.9 -40.4,122.5 0,22.3 18.1,40.4 40.4,40.4 22.3,0 40.4,-18.1 40.4,-40.4 0,-17.6 -26,-86.3 -40.4,-122.5 z"
                 style="fill:#383a48"
                 id="path1203"
                 inkscape:connector-curvature="0" /></g><g
               id="g1205"><path
                 d="m 818.4,478.4 c 17.7,-17.7 128.2,-64 128.2,-64 0,0 -46.3,110.4 -64,128.2 -17.7,17.8 -46.4,17.7 -64.2,0 -17.8,-17.7 -17.7,-46.5 0,-64.2 z"
                 style="fill:#f3f6e6"
                 id="path1207"
                 inkscape:connector-curvature="0" /><path
                 d="m 850.5,560.8 c -12.9,0 -25.8,-4.9 -35.6,-14.7 -19.6,-19.6 -19.6,-51.6 0,-71.2 7.8,-7.8 32,-21.1 72.2,-39.6 29.6,-13.7 57.3,-25.3 57.6,-25.4 1.9,-0.8 4,-0.4 5.5,1.1 1.4,1.4 1.9,3.6 1.1,5.5 -0.1,0.3 -11.8,28 -25.4,57.6 -18.5,40.1 -31.9,64.4 -39.6,72.2 -10,9.6 -22.9,14.5 -35.8,14.5 z M 937.1,423.9 C 901.3,439.3 834.4,469.5 822,482 c -15.7,15.7 -15.7,41.3 0,57.1 15.7,15.7 41.3,15.7 57.1,0 12.4,-12.5 42.6,-79.4 58,-115.2 z"
                 style="fill:#383a48"
                 id="path1209"
                 inkscape:connector-curvature="0" /></g><g
               id="g1211"><path
                 d="m 810.7,369.1 c 25.1,0 135.9,45.4 135.9,45.4 0,0 -110.8,45.4 -135.9,45.4 -25.1,0 -45.4,-20.3 -45.4,-45.4 0,-25.1 20.4,-45.4 45.4,-45.4 z"
                 style="fill:#f3f6e6"
                 id="path1213"
                 inkscape:connector-curvature="0" /><path
                 d="m 810.7,464.8 c -27.8,0 -50.4,-22.6 -50.4,-50.4 0,-27.8 22.6,-50.4 50.4,-50.4 25.7,0 133.2,43.9 137.8,45.7 1.9,0.8 3.1,2.6 3.1,4.6 0,2 -1.2,3.9 -3.1,4.6 -4.6,2 -112,45.9 -137.8,45.9 z m 0,-90.7 c -22.3,0 -40.4,18.1 -40.4,40.4 0,22.3 18.1,40.4 40.4,40.4 17.6,0 86.3,-25.9 122.5,-40.4 C 897,400 828.3,374.1 810.7,374.1 Z"
                 style="fill:#383a48"
                 id="path1215"
                 inkscape:connector-curvature="0" /></g><g
               id="g1217"><path
                 d="m 882.6,286.3 c 17.7,17.7 64,128.2 64,128.2 0,0 -110.4,-46.3 -128.2,-64 -17.8,-17.7 -17.7,-46.4 0,-64.2 17.7,-17.8 46.5,-17.8 64.2,0 z"
                 style="fill:#f3f6e6"
                 id="path1219"
                 inkscape:connector-curvature="0" /><path
                 d="m 946.6,419.4 c -0.7,0 -1.3,-0.1 -1.9,-0.4 -0.3,-0.1 -28,-11.8 -57.6,-25.4 -40.1,-18.5 -64.4,-31.9 -72.2,-39.6 -19.6,-19.6 -19.6,-51.6 0,-71.2 19.6,-19.6 51.6,-19.6 71.2,0 7.8,7.8 21.1,32 39.6,72.2 13.7,29.6 25.3,57.3 25.4,57.6 0.8,1.9 0.4,4 -1.1,5.5 -0.8,0.8 -2.1,1.3 -3.4,1.3 z M 850.5,278 c -10.3,0 -20.7,3.9 -28.5,11.8 -15.7,15.7 -15.7,41.3 0,57.1 12.5,12.5 79.3,42.7 115.2,58.1 C 921.8,369.2 891.6,302.3 879.1,289.8 871.2,281.9 860.8,278 850.5,278 Z"
                 style="fill:#383a48"
                 id="path1221"
                 inkscape:connector-curvature="0" /></g></g></g></g><g
         id="g1223"><g
           id="g1225"><circle
             cx="946.59998"
             cy="414.39999"
             r="90.599998"
             style="fill:#f6e049"
             id="circle1227" /><path
             d="m 946.6,510 c -52.7,0 -95.6,-42.9 -95.6,-95.6 0,-52.7 42.9,-95.6 95.6,-95.6 52.7,0 95.6,42.9 95.6,95.6 0,52.7 -42.9,95.6 -95.6,95.6 z m 0,-181.2 c -47.2,0 -85.6,38.4 -85.6,85.6 0,47.2 38.4,85.6 85.6,85.6 47.2,0 85.6,-38.4 85.6,-85.6 0,-47.2 -38.4,-85.6 -85.6,-85.6 z"
             style="fill:#383a48"
             id="path1229"
             inkscape:connector-curvature="0" /></g><g
           id="g1231"><circle
             cx="917.59998"
             cy="401.20001"
             r="9.6999998"
             style="fill:#383a48"
             id="circle1233" /></g><g
           id="g1235"><circle
             cx="975.59998"
             cy="401.20001"
             r="9.6999998"
             style="fill:#383a48"
             id="circle1237" /></g><g
           id="g1239"><path
             d="m 946.6,456.5 c -14.4,0 -27.7,-8.5 -33.7,-21.6 -1.2,-2.5 0,-5.5 2.5,-6.6 2.5,-1.2 5.5,0 6.6,2.5 4.4,9.6 14.1,15.8 24.6,15.8 10.6,0 20.2,-6.2 24.6,-15.8 1.2,-2.5 4.1,-3.6 6.6,-2.5 2.5,1.2 3.6,4.1 2.5,6.6 -6,13.1 -19.3,21.6 -33.7,21.6 z"
             style="fill:#383a48"
             id="path1241"
             inkscape:connector-curvature="0" /></g></g></g><g
       id="g1243"><g
         id="g1245"><line
           x1="1569.1"
           y1="460.60001"
           x2="1602"
           y2="460.60001"
           style="fill:none"
           id="line1247" /><rect
           x="1569.1"
           y="455.60001"
           width="33"
           height="10"
           style="fill:#383a48"
           id="rect1249" /></g><g
         id="g1251"><line
           x1="1585.6"
           y1="477.10001"
           x2="1585.6"
           y2="444.10001"
           style="fill:none"
           id="line1253" /><rect
           x="1580.6"
           y="444.10001"
           width="10"
           height="33"
           style="fill:#383a48"
           id="rect1255" /></g></g><g
       id="g1257"><g
         id="g1259"><line
           x1="277.60001"
           y1="810.90002"
           x2="310.5"
           y2="810.90002"
           style="fill:none"
           id="line1261" /><rect
           x="277.60001"
           y="805.90002"
           width="33"
           height="10"
           style="fill:#383a48"
           id="rect1263" /></g><g
         id="g1265"><line
           x1="294"
           y1="827.40002"
           x2="294"
           y2="794.40002"
           style="fill:none"
           id="line1267" /><rect
           x="289"
           y="794.40002"
           width="10"
           height="33"
           style="fill:#383a48"
           id="rect1269" /></g></g><g
       id="g1271"><g
         id="g1273"><line
           x1="412.89999"
           y1="233.2"
           x2="445.89999"
           y2="233.2"
           style="fill:none"
           id="line1275" /><rect
           x="412.89999"
           y="228.2"
           width="33"
           height="10"
           style="fill:#383a48"
           id="rect1277" /></g><g
         id="g1279"><line
           x1="429.39999"
           y1="249.60001"
           x2="429.39999"
           y2="216.7"
           style="fill:none"
           id="line1281" /><rect
           x="424.39999"
           y="216.7"
           width="10"
           height="33"
           style="fill:#383a48"
           id="rect1283" /></g></g></g></svg>