<?xml version="1.0" encoding="UTF-8" standalone="no"?>
<!-- Generator: Adobe Illustrator 22.0.1, SVG Export Plug-In . SVG Version: 6.00 Build 0)  -->

<svg
   xmlns:dc="http://purl.org/dc/elements/1.1/"
   xmlns:cc="http://creativecommons.org/ns#"
   xmlns:rdf="http://www.w3.org/1999/02/22-rdf-syntax-ns#"
   xmlns:svg="http://www.w3.org/2000/svg"
   xmlns="http://www.w3.org/2000/svg"
   xmlns:sodipodi="http://sodipodi.sourceforge.net/DTD/sodipodi-0.dtd"
   xmlns:inkscape="http://www.inkscape.org/namespaces/inkscape"
   version="1.1"
   id="Layer_1"
   x="0px"
   y="0px"
   viewBox="0 0 1355.2 803.29999"
   xml:space="preserve"
   inkscape:version="0.91 r13725"
   sodipodi:docname="success.svg"
   width="1355.2"
   height="803.29999"><metadata
     id="metadata479"><rdf:RDF><cc:Work
         rdf:about=""><dc:format>image/svg+xml</dc:format><dc:type
           rdf:resource="http://purl.org/dc/dcmitype/StillImage" /><dc:title></dc:title></cc:Work></rdf:RDF></metadata><defs
     id="defs477" /><sodipodi:namedview
     pagecolor="#ffffff"
     bordercolor="#666666"
     borderopacity="1"
     objecttolerance="10"
     gridtolerance="10"
     guidetolerance="10"
     inkscape:pageopacity="0"
     inkscape:pageshadow="2"
     inkscape:window-width="3200"
     inkscape:window-height="1751"
     id="namedview475"
     showgrid="false"
     fit-margin-top="0"
     fit-margin-left="0"
     fit-margin-right="0"
     fit-margin-bottom="0"
     inkscape:zoom="0.21851852"
     inkscape:cx="677.6"
     inkscape:cy="401.6"
     inkscape:window-x="0"
     inkscape:window-y="24"
     inkscape:window-maximized="1"
     inkscape:current-layer="Layer_1" /><g
     id="g5"
     transform="translate(-282.4,-138.3)"><path
       d="m 903.3,155.7 c -0.7,-2 -2.6,-3.4 -4.7,-3.4 l -255.4,0 c -2.8,0 -5,2.2 -5,5 l 0,296.4 c 0,1.5 0.7,3 1.9,3.9 0.9,0.7 2,1.1 3.1,1.1 0.4,0 0.7,0 1.1,-0.1 1.3,-0.3 32.4,-7.5 65,-26.1 43.8,-25 69,-58.6 72.9,-97.3 4.5,-45.3 36.6,-90.1 62.7,-119.6 28.6,-32.3 56.4,-54.1 56.7,-54.3 1.7,-1.4 2.4,-3.6 1.7,-5.6 z"
       style="fill:#f3f6e6"
       id="path7"
       inkscape:connector-curvature="0" /><g
       id="g9"><polygon
         points="1173.4,180.5 1193.7,194.5 1169.3,198.2 1171.1,222.8 1153,206.1 1134.9,222.8 1136.6,198.2 1112.2,194.5 1132.6,180.5 1120.3,159.1 1143.9,166.3 1153,143.4 1162.1,166.3 1185.7,159.1 "
         style="fill:#f6e049"
         id="polygon11" /><path
         d="m 1171.1,227.8 c -1.2,0 -2.5,-0.5 -3.4,-1.3 l -14.7,-13.6 -14.7,13.6 c -1.5,1.4 -3.7,1.7 -5.6,0.8 -1.8,-0.9 -3,-2.8 -2.8,-4.9 l 1.5,-20 -19.8,-3 c -2,-0.3 -3.7,-1.8 -4.1,-3.8 -0.5,-2 0.4,-4.1 2,-5.2 L 1126,179 1116,161.6 c -1,-1.8 -0.9,-4 0.4,-5.6 1.3,-1.6 3.4,-2.3 5.4,-1.7 l 19.2,5.9 7.4,-18.7 c 0.8,-1.9 2.6,-3.2 4.7,-3.2 2.1,0 3.9,1.3 4.7,3.2 l 7.4,18.7 19.2,-5.9 c 2,-0.6 4.1,0.1 5.4,1.7 1.3,1.6 1.4,3.8 0.4,5.6 l -10,17.4 16.6,11.3 c 1.7,1.2 2.5,3.2 2,5.2 -0.5,2 -2.1,3.5 -4.1,3.8 l -19.8,3 1.5,20 c 0.1,2 -1,4 -2.8,4.9 -1,0.4 -1.7,0.6 -2.5,0.6 z M 1153,201.1 c 1.2,0 2.4,0.4 3.4,1.3 l 8.8,8.2 -0.9,-12 c -0.2,-2.6 1.7,-4.9 4.2,-5.3 l 11.9,-1.8 -9.9,-6.8 c -2.2,-1.5 -2.8,-4.4 -1.5,-6.6 l 6,-10.4 -11.5,3.5 c -2.5,0.8 -5.2,-0.5 -6.1,-2.9 l -4.4,-11.3 -4.4,11.2 c -1,2.4 -3.6,3.7 -6.1,2.9 l -11.5,-3.5 6,10.4 c 1.3,2.3 0.6,5.1 -1.5,6.6 l -9.9,6.8 11.9,1.8 c 2.6,0.4 4.4,2.7 4.2,5.3 l -0.9,12 8.8,-8.2 c 1,-0.8 2.2,-1.2 3.4,-1.2 z"
         style="fill:#f6e049"
         id="path13"
         inkscape:connector-curvature="0" /></g><g
       id="g15"><g
         id="g17"><path
           d="m 892.2,325.7 c -2.8,0 -5,-2.2 -5,-5 l 0,-18.8 c 0,-2.8 2.2,-5 5,-5 2.8,0 5,2.2 5,5 l 0,18.8 c 0,2.8 -2.3,5 -5,5 z"
           style="fill:#383a48"
           id="path19"
           inkscape:connector-curvature="0" /></g><g
         id="g21"><path
           d="m 892.2,393 c -2.8,0 -5,-2.2 -5,-5 l 0,-18.8 c 0,-2.8 2.2,-5 5,-5 2.8,0 5,2.2 5,5 l 0,18.8 c 0,2.8 -2.3,5 -5,5 z"
           style="fill:#383a48"
           id="path23"
           inkscape:connector-curvature="0" /></g><g
         id="g25"><line
           x1="849.09998"
           y1="345"
           x2="867.90002"
           y2="345"
           style="fill:none"
           id="line27" /><path
           d="m 867.9,350 -18.8,0 c -2.8,0 -5,-2.2 -5,-5 0,-2.8 2.2,-5 5,-5 l 18.8,0 c 2.8,0 5,2.2 5,5 0,2.8 -2.3,5 -5,5 z"
           style="fill:#383a48"
           id="path29"
           inkscape:connector-curvature="0" /></g><g
         id="g31"><line
           x1="916.40002"
           y1="345"
           x2="935.20001"
           y2="345"
           style="fill:none"
           id="line33" /><path
           d="m 935.2,350 -18.8,0 c -2.8,0 -5,-2.2 -5,-5 0,-2.8 2.2,-5 5,-5 l 18.8,0 c 2.8,0 5,2.2 5,5 0,2.8 -2.2,5 -5,5 z"
           style="fill:#383a48"
           id="path35"
           inkscape:connector-curvature="0" /></g><g
         id="g37"><line
           x1="861.70001"
           y1="314.5"
           x2="875"
           y2="327.79999"
           style="fill:none"
           id="line39" /><path
           d="m 875,332.8 c -1.3,0 -2.6,-0.5 -3.5,-1.5 L 858.2,318 c -2,-2 -2,-5.1 0,-7.1 2,-2 5.1,-2 7.1,0 l 13.3,13.3 c 2,2 2,5.1 0,7.1 -1,1 -2.3,1.5 -3.6,1.5 z"
           style="fill:#383a48"
           id="path41"
           inkscape:connector-curvature="0" /></g><g
         id="g43"><line
           x1="909.29999"
           y1="362.10001"
           x2="922.59998"
           y2="375.39999"
           style="fill:none"
           id="line45" /><path
           d="m 922.6,380.4 c -1.3,0 -2.6,-0.5 -3.5,-1.5 l -13.3,-13.3 c -2,-2 -2,-5.1 0,-7.1 2,-2 5.1,-2 7.1,0 l 13.3,13.3 c 2,2 2,5.1 0,7.1 -1,1 -2.3,1.5 -3.6,1.5 z"
           style="fill:#383a48"
           id="path47"
           inkscape:connector-curvature="0" /></g><g
         id="g49"><line
           x1="861.70001"
           y1="375.39999"
           x2="875"
           y2="362.10001"
           style="fill:none"
           id="line51" /><path
           d="m 861.7,380.4 c -1.3,0 -2.6,-0.5 -3.5,-1.5 -2,-2 -2,-5.1 0,-7.1 l 13.3,-13.3 c 2,-2 5.1,-2 7.1,0 2,2 2,5.1 0,7.1 L 865.3,379 c -1,0.9 -2.3,1.4 -3.6,1.4 z"
           style="fill:#383a48"
           id="path53"
           inkscape:connector-curvature="0" /></g><g
         id="g55"><line
           x1="909.29999"
           y1="327.79999"
           x2="922.59998"
           y2="314.5"
           style="fill:none"
           id="line57" /><path
           d="m 909.3,332.8 c -1.3,0 -2.6,-0.5 -3.5,-1.5 -2,-2 -2,-5.1 0,-7.1 l 13.3,-13.3 c 2,-2 5.1,-2 7.1,0 2,2 2,5.1 0,7.1 l -13.3,13.3 c -1,1 -2.3,1.5 -3.6,1.5 z"
           style="fill:#383a48"
           id="path59"
           inkscape:connector-curvature="0" /></g></g><path
       d="m 1632.6,152.6 -0.8,0 c -41.7,0 -82.5,11.6 -118.1,33.7 -35.4,21.9 -64.1,53.3 -83.1,90.6 -5.6,11 -12,22.1 -19.5,33.7 -15.9,24.7 -34.1,47.7 -51.7,70 -48.5,61.3 -94.2,119.2 -79.8,197 10.2,54.9 27.1,94.4 42.1,129.3 3.3,7.8 6.5,15.2 9.5,22.5 12.2,29.9 20.1,56 18.9,86.1 -1.4,33.4 -13.9,69.8 -39.5,114.8 -0.9,1.5 -0.9,3.4 0,5 0.9,1.6 2.5,2.5 4.3,2.5 l 317.7,0 c 2.8,0 5,-2.2 5,-5 l 0,-775 c 0,-2.9 -2.2,-5.2 -5,-5.2 z"
       style="fill:#f3f6e6"
       id="path61"
       inkscape:connector-curvature="0" /><path
       d="m 1457.2,308.3 -42,0 c -1.7,0 -3.3,0.9 -4.2,2.3 -15.9,24.7 -34.1,47.7 -51.7,70 -48.5,61.3 -94.2,119.2 -79.8,197 10.2,54.9 27.1,94.4 42.1,129.3 3.3,7.8 6.5,15.2 9.5,22.5 0.8,1.9 2.6,3.1 4.6,3.1 l 121.5,0 c 2.8,0 5,-2.2 5,-5 l 0,-414.2 c 0,-2.7 -2.2,-5 -5,-5 z"
       style="fill:#383a48"
       id="path63"
       inkscape:connector-curvature="0" /><path
       d="M 587.4,796.1 C 575,771.2 561,743 553.8,680.1 c -6,-52.6 -24.7,-96.5 -57.2,-134.2 -28.5,-33 -63.3,-57 -96.9,-80.1 C 353.4,434 309.6,403.9 292.1,355 c -0.8,-2.3 -3.2,-3.7 -5.6,-3.2 -2.4,0.4 -4.1,2.5 -4.1,4.9 l 0,468.8 c 0,61.9 50.3,112.2 112.2,112.2 l 207.2,0 c 2.5,0 4.7,-1.9 5,-4.4 9,-80 -3.5,-105.2 -19.4,-137.2 z"
       style="fill:#f3f6e6"
       id="path65"
       inkscape:connector-curvature="0" /><g
       id="g67"><g
         id="g69"><g
           id="g71"><circle
             cx="521.5"
             cy="748.40002"
             r="5"
             style="fill:#383a48"
             id="circle73" /></g></g><g
         id="g75"><g
           id="g77"><circle
             cx="521.5"
             cy="773"
             r="5"
             style="fill:#383a48"
             id="circle79" /></g></g><g
         id="g81"><g
           id="g83"><circle
             cx="521.5"
             cy="797.70001"
             r="5"
             style="fill:#383a48"
             id="circle85" /></g></g><g
         id="g87"><g
           id="g89"><circle
             cx="496.79999"
             cy="748.40002"
             r="5"
             style="fill:#383a48"
             id="circle91" /></g></g><g
         id="g93"><g
           id="g95"><circle
             cx="496.79999"
             cy="773"
             r="5"
             style="fill:#383a48"
             id="circle97" /></g></g><g
         id="g99"><g
           id="g101"><circle
             cx="496.79999"
             cy="797.70001"
             r="5"
             style="fill:#383a48"
             id="circle103" /></g></g><g
         id="g105"><g
           id="g107"><circle
             cx="472.10001"
             cy="748.40002"
             r="5"
             style="fill:#383a48"
             id="circle109" /></g></g><g
         id="g111"><g
           id="g113"><circle
             cx="472.10001"
             cy="773"
             r="5"
             style="fill:#383a48"
             id="circle115" /></g></g><g
         id="g117"><g
           id="g119"><circle
             cx="472.10001"
             cy="797.70001"
             r="5"
             style="fill:#383a48"
             id="circle121" /></g></g><g
         id="g123"><g
           id="g125"><circle
             cx="447.5"
             cy="748.40002"
             r="5"
             style="fill:#383a48"
             id="circle127" /></g></g><g
         id="g129"><g
           id="g131"><circle
             cx="447.5"
             cy="773"
             r="5"
             style="fill:#383a48"
             id="circle133" /></g></g><g
         id="g135"><g
           id="g137"><circle
             cx="447.5"
             cy="797.70001"
             r="5"
             style="fill:#383a48"
             id="circle139" /></g></g><g
         id="g141"><g
           id="g143"><circle
             cx="422.79999"
             cy="748.40002"
             r="5"
             style="fill:#383a48"
             id="circle145" /></g></g><g
         id="g147"><g
           id="g149"><circle
             cx="422.79999"
             cy="773"
             r="5"
             style="fill:#383a48"
             id="circle151" /></g></g><g
         id="g153"><g
           id="g155"><circle
             cx="422.79999"
             cy="797.70001"
             r="5"
             style="fill:#383a48"
             id="circle157" /></g></g><g
         id="g159"><g
           id="g161"><circle
             cx="398.10001"
             cy="748.40002"
             r="5"
             style="fill:#383a48"
             id="circle163" /></g></g><g
         id="g165"><g
           id="g167"><circle
             cx="398.10001"
             cy="773"
             r="5"
             style="fill:#383a48"
             id="circle169" /></g></g><g
         id="g171"><g
           id="g173"><circle
             cx="398.10001"
             cy="797.70001"
             r="5"
             style="fill:#383a48"
             id="circle175" /></g></g><g
         id="g177"><g
           id="g179"><circle
             cx="373.5"
             cy="748.40002"
             r="5"
             style="fill:#383a48"
             id="circle181" /></g></g><g
         id="g183"><g
           id="g185"><circle
             cx="373.5"
             cy="773"
             r="5"
             style="fill:#383a48"
             id="circle187" /></g></g><g
         id="g189"><g
           id="g191"><circle
             cx="373.5"
             cy="797.70001"
             r="5"
             style="fill:#383a48"
             id="circle193" /></g></g><g
         id="g195"><g
           id="g197"><circle
             cx="348.79999"
             cy="748.40002"
             r="5"
             style="fill:#383a48"
             id="circle199" /></g></g><g
         id="g201"><g
           id="g203"><circle
             cx="348.79999"
             cy="773"
             r="5"
             style="fill:#383a48"
             id="circle205" /></g></g><g
         id="g207"><g
           id="g209"><circle
             cx="348.79999"
             cy="797.70001"
             r="5"
             style="fill:#383a48"
             id="circle211" /></g></g><g
         id="g213"><g
           id="g215"><circle
             cx="324.10001"
             cy="748.40002"
             r="5"
             style="fill:#383a48"
             id="circle217" /></g></g><g
         id="g219"><g
           id="g221"><circle
             cx="324.10001"
             cy="773"
             r="5"
             style="fill:#383a48"
             id="circle223" /></g></g><g
         id="g225"><g
           id="g227"><circle
             cx="324.10001"
             cy="797.70001"
             r="5"
             style="fill:#383a48"
             id="circle229" /></g></g><g
         id="g231"><g
           id="g233"><circle
             cx="299.5"
             cy="748.40002"
             r="5"
             style="fill:#383a48"
             id="circle235" /></g></g><g
         id="g237"><g
           id="g239"><circle
             cx="299.5"
             cy="773"
             r="5"
             style="fill:#383a48"
             id="circle241" /></g></g><g
         id="g243"><g
           id="g245"><circle
             cx="299.5"
             cy="797.70001"
             r="5"
             style="fill:#383a48"
             id="circle247" /></g></g></g><g
       id="g249"><g
         id="g251"><rect
           x="1034.8"
           y="256.29999"
           width="465"
           height="414.10001"
           style="fill:#f3f6e6"
           id="rect253" /><path
           d="m 1499.8,675.4 -465,0 c -2.8,0 -5,-2.2 -5,-5 l 0,-414.1 c 0,-2.8 2.2,-5 5,-5 l 465,0 c 2.8,0 5,2.2 5,5 l 0,414.1 c 0,2.8 -2.2,5 -5,5 z m -460,-10 455,0 0,-404.1 -455,0 0,404.1 z"
           style="fill:#383a48"
           id="path255"
           inkscape:connector-curvature="0" /></g><g
         id="g257"><g
           id="g259"><rect
             x="1034.8"
             y="256.29999"
             width="465"
             height="123.2"
             style="fill:#7fd6c2"
             id="rect261" /></g><g
           id="g263"><path
             d="m 1499.8,384.5 -465,0 c -2.8,0 -5,-2.2 -5,-5 l 0,-123.2 c 0,-2.8 2.2,-5 5,-5 l 465,0 c 2.8,0 5,2.2 5,5 l 0,123.2 c 0,2.7 -2.2,5 -5,5 z m -460,-10 455,0 0,-113.2 -455,0 0,113.2 z"
             style="fill:#383a48"
             id="path265"
             inkscape:connector-curvature="0" /></g></g><g
         id="g267"><g
           id="g269"><circle
             cx="1273.8"
             cy="522.40002"
             r="140.39999"
             style="fill:#f6e049"
             id="circle271" /><path
             d="m 1273.8,667.8 c -80.2,0 -145.4,-65.2 -145.4,-145.4 0,-80.2 65.2,-145.4 145.4,-145.4 80.2,0 145.4,65.2 145.4,145.4 0,80.2 -65.3,145.4 -145.4,145.4 z m 0,-280.7 c -74.7,0 -135.4,60.7 -135.4,135.4 0,74.7 60.7,135.4 135.4,135.4 74.7,0 135.4,-60.7 135.4,-135.4 -0.1,-74.7 -60.8,-135.4 -135.4,-135.4 z"
             style="fill:#383a48"
             id="path273"
             inkscape:connector-curvature="0" /></g><g
           id="g275"><path
             d="m 1228.6,536.5 c 7.8,29 25.1,40.9 45.2,40.9 20.1,0 37.3,-11.9 45.2,-40.9 l -90.4,0 z"
             style="fill:#383a48"
             id="path277"
             inkscape:connector-curvature="0" /><path
             d="m 1273.8,582.5 c -24.5,0 -42.2,-15.8 -50,-44.6 -0.4,-1.5 -0.1,-3.1 0.9,-4.3 0.9,-1.2 2.4,-2 4,-2 l 90.4,0 c 1.6,0 3,0.7 4,2 0.9,1.2 1.3,2.8 0.9,4.3 -8,28.7 -25.8,44.6 -50.2,44.6 z m -38.4,-41 c 7.2,20.3 20.4,30.9 38.4,30.9 18,0 31.2,-10.7 38.4,-30.9 l -76.8,0 z"
             style="fill:#383a48"
             id="path279"
             inkscape:connector-curvature="0" /></g><g
           id="g281"><path
             d="m 1240.3,561.3 67,0 c 8.3,-9.7 11.7,-24.8 11.7,-24.8 l -90.4,0 c 0,0 4.2,16.3 11.7,24.8 z"
             style="fill:#f3f6e6"
             id="path283"
             inkscape:connector-curvature="0" /><path
             d="m 1307.3,566.3 -67,0 c -1.4,0 -2.8,-0.6 -3.8,-1.7 -8.2,-9.3 -12.6,-26.1 -12.8,-26.8 -0.4,-1.5 -0.1,-3.1 0.9,-4.3 0.9,-1.2 2.4,-1.9 4,-1.9 l 90.4,0 c 1.5,0 3,0.7 3.9,1.9 0.9,1.2 1.3,2.7 1,4.2 -0.1,0.7 -3.8,16.3 -12.8,26.9 -1,1 -2.4,1.7 -3.8,1.7 z m -64.6,-10 62.2,0 c 3.5,-4.7 5.9,-10.5 7.4,-14.8 l -76.9,0 c 1.6,4.5 4.1,10.4 7.3,14.8 z"
             style="fill:#383a48"
             id="path285"
             inkscape:connector-curvature="0" /></g><g
           id="g287"><path
             d="m 1304.5,508.1 c 0,-8 6.5,-14.5 14.5,-14.5 8,0 14.5,6.5 14.5,14.5"
             style="fill:#f6e049"
             id="path289"
             inkscape:connector-curvature="0" /><path
             d="m 1333.4,513.1 c -2.8,0 -5,-2.2 -5,-5 0,-5.2 -4.3,-9.5 -9.5,-9.5 -5.2,0 -9.5,4.3 -9.5,9.5 0,2.8 -2.2,5 -5,5 -2.8,0 -5,-2.2 -5,-5 0,-10.7 8.7,-19.5 19.5,-19.5 10.8,0 19.5,8.7 19.5,19.5 0,2.8 -2.2,5 -5,5 z"
             style="fill:#383a48"
             id="path291"
             inkscape:connector-curvature="0" /></g><g
           id="g293"><path
             d="m 1243.1,508.1 c 0,-8 -6.5,-14.5 -14.5,-14.5 -8,0 -14.5,6.5 -14.5,14.5"
             style="fill:#f6e049"
             id="path295"
             inkscape:connector-curvature="0" /><path
             d="m 1243.1,513.1 c -2.8,0 -5,-2.2 -5,-5 0,-5.2 -4.3,-9.5 -9.5,-9.5 -5.2,0 -9.5,4.3 -9.5,9.5 0,2.8 -2.2,5 -5,5 -2.8,0 -5,-2.2 -5,-5 0,-10.7 8.7,-19.5 19.5,-19.5 10.8,0 19.5,8.7 19.5,19.5 0,2.8 -2.3,5 -5,5 z"
             style="fill:#383a48"
             id="path297"
             inkscape:connector-curvature="0" /></g></g><g
         id="g299"><g
           id="g301"><g
             id="g303"><line
               x1="1426.6"
               y1="306.20001"
               x2="1449.9"
               y2="329.5"
               style="fill:none"
               id="line305" /><rect
               x="1433.3"
               y="301.39999"
               transform="matrix(0.7071,-0.7071,0.7071,0.7071,196.49,1110.1384)"
               width="10"
               height="33"
               style="fill:#383a48"
               id="rect307" /></g><g
             id="g309"><line
               x1="1426.6"
               y1="329.5"
               x2="1449.9"
               y2="306.20001"
               style="fill:none"
               id="line311" /><rect
               x="1421.9"
               y="312.79999"
               transform="matrix(0.7071,-0.7072,0.7072,0.7071,196.6192,1110.2607)"
               width="33"
               height="10"
               style="fill:#383a48"
               id="rect313" /></g></g><g
           id="g315"><path
             d="m 1406.8,335.6 -35.5,0 0,-35.5 35.5,0 0,35.5 z m -25.4,-10 15.5,0 0,-15.5 -15.5,0 0,15.5 z"
             style="fill:#383a48"
             id="path317"
             inkscape:connector-curvature="0" /></g><g
           id="g319"><rect
             x="1325.7"
             y="325.60001"
             width="25.5"
             height="10"
             style="fill:#383a48"
             id="rect321" /></g></g></g><g
       id="g323"><g
         id="g325"><rect
           x="287.39999"
           y="157.3"
           width="355.79999"
           height="567.09998"
           style="fill:#f3f6e6"
           id="rect327" /><path
           d="m 643.2,729.4 -355.8,0 c -2.8,0 -5,-2.2 -5,-5 l 0,-567.1 c 0,-2.8 2.2,-5 5,-5 l 355.8,0 c 2.8,0 5,2.2 5,5 l 0,567.1 c 0,2.7 -2.2,5 -5,5 z m -350.8,-10 345.8,0 0,-557.1 -345.8,0 0,557.1 z"
           style="fill:#383a48"
           id="path329"
           inkscape:connector-curvature="0" /></g><g
         id="g331"><g
           id="g333"><g
             id="g335"><rect
               x="393.10001"
               y="330.60001"
               width="152.10001"
               height="134.8"
               style="fill:#7fd6c2"
               id="rect337" /></g><g
             id="g339"><path
               d="m 545.2,470.4 -152.1,0 c -2.8,0 -5,-2.2 -5,-5 l 0,-134.8 c 0,-2.8 2.2,-5 5,-5 l 152.1,0 c 2.8,0 5,2.2 5,5 l 0,134.8 c 0,2.8 -2.2,5 -5,5 z m -147.1,-10 142.1,0 0,-124.8 -142.1,0 0,124.8 z"
               style="fill:#383a48"
               id="path341"
               inkscape:connector-curvature="0" /></g></g><g
           id="g343"><polyline
             points="429.9,383.3 468,432.7 513.7,369.2     "
             style="fill:#7fd6c2"
             id="polyline345" /><path
             d="m 468,437.7 c -1.5,0 -3,-0.7 -4,-1.9 l -38.1,-49.4 c -1.7,-2.2 -1.3,-5.3 0.9,-7 2.2,-1.7 5.3,-1.3 7,0.9 l 34,44.1 41.8,-58.1 c 1.6,-2.2 4.7,-2.8 7,-1.1 2.2,1.6 2.8,4.7 1.1,7 L 472,435.6 c -0.9,1.3 -2.4,2.1 -4,2.1 l 0,0 z"
             style="fill:#383a48"
             id="path347"
             inkscape:connector-curvature="0" /></g></g><g
         id="g349"><rect
           x="287.39999"
           y="157.3"
           width="355.79999"
           height="107.7"
           style="fill:#e0719e"
           id="rect351" /><path
           d="m 643.2,270 -355.8,0 c -2.8,0 -5,-2.2 -5,-5 l 0,-107.7 c 0,-2.8 2.2,-5 5,-5 l 355.8,0 c 2.8,0 5,2.2 5,5 l 0,107.7 c 0,2.8 -2.2,5 -5,5 z m -350.8,-10 345.8,0 0,-97.7 -345.8,0 0,97.7 z"
           style="fill:#383a48"
           id="path353"
           inkscape:connector-curvature="0" /></g><g
         id="g355"><g
           id="g357"><g
             id="g359"><rect
               x="582.5"
               y="194.7"
               transform="matrix(0.7071,-0.7071,0.7071,0.7071,22.7654,477.2794)"
               width="10"
               height="33"
               style="fill:#f3f6e6"
               id="rect361" /></g><g
             id="g363"><rect
               x="571"
               y="206.10001"
               transform="matrix(0.7071,-0.7072,0.7072,0.7071,22.808,477.3434)"
               width="33"
               height="10"
               style="fill:#f3f6e6"
               id="rect365" /></g></g><g
           id="g367"><path
             d="m 556,228.9 -35.5,0 0,-35.5 35.5,0 0,35.5 z m -25.4,-10 15.4,0 0,-15.5 -15.5,0 0.1,15.5 0,0 z"
             style="fill:#f3f6e6"
             id="path369"
             inkscape:connector-curvature="0" /></g><g
           id="g371"><rect
             x="474.89999"
             y="218.89999"
             width="25.5"
             height="10"
             style="fill:#f3f6e6"
             id="rect373" /></g></g></g><g
       id="g375"><g
         id="g377"><polygon
           points="941.4,868 954.5,936.2 545.2,936.2 545.2,463.4 1034.8,463.4 1034.8,786.2 "
           style="fill:#f3f6e6"
           id="polygon379" /><path
           d="m 954.5,941.2 -409.3,0 c -2.8,0 -5,-2.2 -5,-5 l 0,-472.8 c 0,-2.8 2.2,-5 5,-5 l 489.6,0 c 2.8,0 5,2.2 5,5 l 0,322.9 c 0,1.4 -0.6,2.8 -1.7,3.8 l -91.2,79.9 12.5,65.4 c 0.3,1.5 -0.1,3 -1.1,4.1 -0.9,1.1 -2.3,1.7 -3.8,1.7 z m -404.3,-10 398.3,0 -12,-62.2 c -0.3,-1.7 0.3,-3.5 1.6,-4.7 l 91.7,-80.3 0,-315.6 -479.6,0 0,462.8 z"
           style="fill:#383a48"
           id="path381"
           inkscape:connector-curvature="0" /></g><g
         id="g383"><rect
           x="545.20001"
           y="463.39999"
           width="489.60001"
           height="114.1"
           style="fill:#f6e049"
           id="rect385" /><path
           d="m 1034.8,582.5 -489.6,0 c -2.8,0 -5,-2.2 -5,-5 l 0,-114.1 c 0,-2.8 2.2,-5 5,-5 l 489.6,0 c 2.8,0 5,2.2 5,5 l 0,114.1 c 0,2.7 -2.2,5 -5,5 z m -484.6,-10 479.6,0 0,-104.1 -479.6,0 0,104.1 z"
           style="fill:#383a48"
           id="path387"
           inkscape:connector-curvature="0" /></g><path
         d="m 1032.8,458.4 -28,0 c -2.8,0 -5,2.2 -5,5 l 0,242.3 c 0,2.8 2.2,5 5,5 l 28,0 c 2.8,0 5,-2.2 5,-5 l 0,-242.3 c 0,-2.8 -2.2,-5 -5,-5 z"
         style="fill:#383a48"
         id="path389"
         inkscape:connector-curvature="0" /><g
         id="g391"><g
           id="g393"><g
             id="g395"><rect
               x="955.5"
               y="503.89999"
               transform="matrix(0.7071,-0.7071,0.7071,0.7071,-86.6473,831.5751)"
               width="10"
               height="33"
               style="fill:#383a48"
               id="rect397" /></g><g
             id="g399"><rect
               x="944"
               y="515.40002"
               transform="matrix(0.7071,-0.7072,0.7072,0.7071,-86.5869,831.6942)"
               width="33"
               height="10"
               style="fill:#383a48"
               id="rect401" /></g></g><g
           id="g403"><path
             d="m 929,538.1 -35.5,0 0,-35.5 35.5,0 0,35.5 z m -25.4,-10 15.4,0 0,-15.5 -15.5,0 0.1,15.5 0,0 z"
             style="fill:#383a48"
             id="path405"
             inkscape:connector-curvature="0" /></g><g
           id="g407"><rect
             x="847.90002"
             y="528.09998"
             width="25.5"
             height="10"
             style="fill:#383a48"
             id="rect409" /></g></g><g
         id="g411"><g
           id="g413"><path
             d="m 795.3,666.1 0,0 C 776.2,647 745.1,647 726,666.1 l -15.6,15.6 -15.6,-15.6 c -19.1,-19.1 -50.2,-19.1 -69.3,0 l 0,0 c -19.1,19.1 -19.1,50.2 0,69.3 l 85,85 69.3,-69.3 15.6,-15.6 c 19,-19.2 19,-50.2 -0.1,-69.4 z"
             style="fill:#e0719e"
             id="path415"
             inkscape:connector-curvature="0" /><path
             d="m 710.3,825.4 c -1.3,0 -2.6,-0.5 -3.5,-1.5 l -85,-85 c -21.1,-21.1 -21.1,-55.3 0,-76.4 10.2,-10.2 23.8,-15.8 38.2,-15.8 14.4,0 28,5.6 38.2,15.8 l 12.1,12.1 12.1,-12.1 c 10.2,-10.2 23.8,-15.8 38.2,-15.8 14.4,0 28,5.6 38.2,15.8 21.1,21.1 21.1,55.3 0,76.4 l -85,85 c -0.9,1 -2.2,1.5 -3.5,1.5 z M 660,656.8 c -11.8,0 -22.8,4.6 -31.1,12.9 -17.2,17.2 -17.2,45.1 0,62.3 l 81.4,81.4 81.4,-81.4 c 17.2,-17.2 17.2,-45.1 0,-62.3 l 0,0 c -8.3,-8.3 -19.4,-12.9 -31.1,-12.9 -11.8,0 -22.8,4.6 -31.1,12.9 l -15.6,15.6 c -2,2 -5.1,2 -7.1,0 l -15.6,-15.6 c -8.4,-8.3 -19.4,-12.9 -31.2,-12.9 z"
             style="fill:#383a48"
             id="path417"
             inkscape:connector-curvature="0" /></g></g></g><g
       id="g419"><g
         id="g421"><g
           id="g423"><path
             d="m 1309.2,936.6 -150,0 c 0,-62.8 -51.1,-114 -114,-114 -62.9,0 -114,51.1 -114,114 l -150,0 c 0,-70.5 27.5,-136.8 77.3,-186.6 49.8,-49.8 116.1,-77.3 186.6,-77.3 70.5,0 136.8,27.5 186.6,77.3 50,49.9 77.5,116.1 77.5,186.6 z"
             style="fill:#e0719e"
             id="path425"
             inkscape:connector-curvature="0" /><path
             d="m 1309.2,941.6 -150,0 c -2.8,0 -5,-2.2 -5,-5 0,-60.1 -48.9,-109 -109,-109 -60.1,0 -109,48.9 -109,109 0,2.8 -2.2,5 -5,5 l -150,0 c -2.8,0 -5,-2.2 -5,-5 0,-71.8 28,-139.4 78.8,-190.2 50.8,-50.8 118.3,-78.8 190.2,-78.8 71.8,0 139.4,28 190.2,78.8 50.8,50.8 78.8,118.3 78.8,190.2 0,2.8 -2.3,5 -5,5 z m -145.1,-10 140.1,0 c -1.3,-67.3 -28.1,-130.4 -75.8,-178.1 -48.9,-48.9 -113.9,-75.8 -183.1,-75.8 -69.2,0 -134.2,26.9 -183.1,75.8 -47.7,47.7 -74.5,110.8 -75.8,178.1 l 140.1,0 c 2.6,-63.3 54.9,-114 118.8,-114 63.9,0 116.1,50.8 118.8,114 z"
             style="fill:#383a48"
             id="path427"
             inkscape:connector-curvature="0" /></g></g><g
         id="g429"><g
           id="g431"><path
             d="m 1134.5,936.4 0,-0.2 c -0.1,-49.5 -40.4,-89.8 -90,-89.8 -49.5,0 -89.9,40.2 -90,89.8 l 0,0.2 -118.4,0 c 0,-55.7 21.7,-108 61,-147.4 39.4,-39.4 91.7,-61 147.4,-61 55.7,0 108,21.7 147.4,61 39.4,39.4 61,91.7 61,147.4 l -118.4,0 z"
             style="fill:#f6e049"
             id="path433"
             inkscape:connector-curvature="0" /><path
             d="m 1252.9,941.4 -118.4,0 c -2.8,0 -5,-2.2 -5,-5 l 0,-0.2 c -0.1,-46.7 -38.2,-84.8 -85,-84.8 -46.7,0 -84.9,38 -85,84.8 l 0,0.2 c 0,2.8 -2.2,5 -5,5 l -118.4,0 c -2.8,0 -5,-2.2 -5,-5 0,-57 22.2,-110.6 62.5,-150.9 40.3,-40.3 93.9,-62.5 150.9,-62.5 57,0 110.6,22.2 150.9,62.5 40.3,40.3 62.5,93.9 62.5,150.9 0,2.8 -2.2,5 -5,5 z m -113.6,-10 108.5,0 c -1.3,-52.5 -22.3,-101.6 -59.5,-138.8 -38.4,-38.4 -89.5,-59.6 -143.8,-59.6 -54.3,0 -105.4,21.2 -143.8,59.6 -37.2,37.2 -58.3,86.4 -59.5,138.8 l 108.5,0 c 2.6,-50 44.2,-90 94.8,-90 50.6,0.1 92.2,40 94.8,90 z"
             style="fill:#383a48"
             id="path435"
             inkscape:connector-curvature="0" /></g></g><g
         id="g437"><g
           id="g439"><path
             d="m 1193.7,936.2 -59.3,0 c -0.1,-49.5 -40.4,-89.8 -90,-89.8 -49.5,0 -89.9,40.2 -90,89.8 l -60.8,0 c 0,-40.1 15.6,-77.7 43.9,-106 28.3,-28.3 66,-43.9 106,-43.9 40.1,0 77.7,15.6 106.1,43.9 28.5,28.3 44.1,66 44.1,106 z"
             style="fill:#aac6fc"
             id="path441"
             inkscape:connector-curvature="0" /><path
             d="m 1193.7,941.2 -59.3,0 c -2.8,0 -5,-2.2 -5,-5 -0.1,-46.7 -38.2,-84.8 -85,-84.8 -46.7,0 -84.9,38 -85,84.8 0,2.8 -2.2,5 -5,5 l -60.8,0 c -2.8,0 -5,-2.2 -5,-5 0,-41.4 16.1,-80.3 45.4,-109.6 29.3,-29.3 68.2,-45.4 109.6,-45.4 41.4,0 80.3,16.1 109.6,45.4 29.3,29.3 45.4,68.2 45.4,109.6 0.1,2.8 -2.1,5 -4.9,5 z m -54.4,-10 49.3,0 c -1.2,-36.8 -16.2,-71.3 -42.4,-97.5 -27.4,-27.4 -63.8,-42.5 -102.5,-42.5 -38.7,0 -75.1,15.1 -102.5,42.5 -26.2,26.2 -41.1,60.7 -42.4,97.5 l 50.8,0 c 2.7,-49.9 44.3,-89.8 94.8,-89.8 50.7,0.1 92.2,39.9 94.9,89.8 z"
             style="fill:#383a48"
             id="path443"
             inkscape:connector-curvature="0" /></g></g></g><g
       id="g445"><line
         x1="1472.4"
         y1="637.09998"
         x2="1576.1"
         y2="740.79999"
         style="fill:none"
         id="line447" /><path
         d="m 1576.1,745.8 c -1.3,0 -2.6,-0.5 -3.5,-1.5 L 1468.9,640.6 c -2,-2 -2,-5.1 0,-7.1 2,-2 5.1,-2 7.1,0 l 103.7,103.7 c 2,2 2,5.1 0,7.1 -1.1,1 -2.3,1.5 -3.6,1.5 z"
         style="fill:#383a48"
         id="path449"
         inkscape:connector-curvature="0" /></g><g
       id="g451"><g
         id="g453"><rect
           x="400.5"
           y="857.70001"
           width="10"
           height="33"
           style="fill:#383a48"
           id="rect455" /></g><g
         id="g457"><line
           x1="389"
           y1="874.20001"
           x2="421.89999"
           y2="874.20001"
           style="fill:none"
           id="line459" /><rect
           x="389"
           y="869.20001"
           width="33"
           height="10"
           style="fill:#383a48"
           id="rect461" /></g></g><g
       id="g463"><g
         id="g465"><rect
           x="1384.1"
           y="165.7"
           width="10"
           height="33"
           style="fill:#383a48"
           id="rect467" /></g><g
         id="g469"><line
           x1="1372.6"
           y1="182.2"
           x2="1405.6"
           y2="182.2"
           style="fill:none"
           id="line471" /><rect
           x="1372.6"
           y="177.2"
           width="33"
           height="10"
           style="fill:#383a48"
           id="rect473" /></g></g></g></svg>